<svg width="1247" height="280" viewBox="0 0 1247 280" fill="none" xmlns="http://www.w3.org/2000/svg">
<path d="M108.356 2.8772C56.9588 14.0005 15.7259 54.2743 3.0684 105.671C-0.958998 121.781 -0.958998 155.918 3.0684 172.603C12.0821 211.534 40.6574 246.822 77.6711 264.657C97.9999 274.63 113.534 278.082 138.274 278.082C192.74 278.082 238 250.849 263.123 202.712C272.52 185.26 276.548 169.343 277.507 146.521C278.849 119.48 275.205 101.644 263.315 76.7126C255.835 61.1784 252 56.0004 237.041 41.0415C222.082 26.0826 216.904 22.247 201.37 14.7676C191.397 9.97308 177.014 4.79501 169.342 3.06897C152.849 -0.57486 124.466 -0.766632 108.356 2.8772ZM168.575 18.2196C188.712 23.0141 210 35.2881 226.493 51.973C238.575 63.8634 242.794 69.8085 249.89 84.5756C260.822 107.014 263.507 120.822 262.356 146.329C260.822 179.699 248.164 206.74 223.233 229.945C199.644 252 171.644 263.315 140 263.507C118.904 263.699 106.055 260.822 87.2602 252.192C59.452 239.534 38.5478 218.63 25.8903 190.822C17.2602 172.219 14.3835 159.178 14.5752 138.082C14.5752 103.945 26.0821 77.4798 51.7807 51.7812C69.4246 34.1374 83.9999 25.3155 105.863 18.9868C121.205 14.7676 151.699 14.384 168.575 18.2196Z" fill="#686868"/>
<path d="M65.589 64.6299C44.3013 85.9176 34.5205 109.315 34.5205 139.041C34.5205 168.959 45.6438 195.233 66.5479 214.795C76.5204 224.192 79.9725 226.301 85.3423 226.301H92.0547V203.288V180.274H139.041H186.027V203.288V226.301H192.931C199.068 226.301 201.561 224.575 212.876 213.069C249.506 175.863 253.726 120.055 223.424 77.4792C212.876 62.9038 199.26 51.7805 191.589 51.7805H186.027V75.7532V99.7258H139.041H92.0547V75.7532V51.7805H85.3423C79.5889 51.7805 76.7122 53.6983 65.589 64.6299ZM76.7122 139.425L76.5204 204.247L69.8081 196.575C46.4109 170.11 42.1917 126.383 60.0273 95.8902C64.4383 88.4107 74.6026 74.7943 75.9451 74.7943C76.3287 74.7943 76.7122 103.945 76.7122 139.425ZM217.287 95.6984C234.931 127.918 229.753 175.479 206.356 197.342L201.37 201.945V139.041V75.9449L206.931 81.3148C210 84.1915 214.602 90.7121 217.287 95.6984ZM186.027 139.041V164.931H139.041H92.0547V139.041V113.151H139.041H186.027V139.041Z" fill="#686868"/>
<path d="M558.132 46.592C543.749 51.1947 535.886 56.3728 525.146 67.8796C515.173 78.6193 506.543 95.8796 503.091 111.606C500.023 126.373 500.406 156.482 504.05 170.099C515.94 215.934 552.954 241.441 598.406 234.729C632.735 229.934 657.474 205.578 667.063 167.606C671.282 150.537 669.94 115.825 664.187 99.7152C655.748 75.9344 638.104 56.181 618.351 48.5098C603.009 42.5646 573.283 41.6057 558.132 46.592ZM599.365 91.6604C607.42 95.1125 612.981 101.249 618.351 112.948C621.803 120.619 622.57 125.989 622.57 139.797C622.57 154.948 621.995 158.592 617.2 168.181C609.913 183.14 600.324 189.66 585.365 189.66C576.735 189.66 572.899 188.51 566.762 184.482C539.529 166.455 541.639 106.811 570.214 92.4275C578.077 88.4001 590.926 88.0166 599.365 91.6604Z" fill="#686868"/>
<path d="M725.94 46.4005C697.173 56.7567 682.981 77.6608 685.666 106.236C686.817 119.852 691.228 129.633 700.242 138.263C709.831 147.661 717.885 151.304 740.899 157.058C751.83 159.743 763.721 163.195 767.173 164.729C779.639 170.483 778.871 184.291 765.639 191.195C752.598 197.907 729.584 192.154 714.05 177.962L705.995 170.866L690.653 186.017L675.502 200.976L683.173 208.839C702.159 228.208 723.639 235.496 756.817 234.345C774.46 233.578 780.022 232.619 788.844 228.592C802.844 222.263 812.625 213.25 818.953 201.359C823.364 192.921 824.131 189.277 824.131 174.318C824.131 140.757 812.241 129.441 765.639 118.51C748.187 114.483 742.625 112.373 738.406 107.962C732.077 101.633 731.694 98.7566 736.872 92.2361C745.693 81.1128 765.639 82.0717 783.091 94.1539L793.063 100.866L807.638 86.2909L822.022 71.7156L815.501 65.0032C811.858 61.1676 802.46 54.8389 794.789 51.0033C781.365 44.4827 779.447 44.0992 758.351 43.5238C740.132 42.9485 733.995 43.5238 725.94 46.4005Z" fill="#686868"/>
<path d="M900.269 46.0167C887.995 49.277 884.543 51.003 872.269 59.8249C846.571 78.6194 833.338 122.345 841.201 161.852C851.365 211.715 887.036 240.099 934.022 235.88C957.036 233.77 967.776 228.592 983.885 212.482C991.365 204.619 997.693 197.524 997.693 196.565C997.693 195.606 989.063 188.893 978.515 181.797L959.337 168.756L956.077 173.551C938.433 198.482 906.022 194.647 892.598 166.071C888.187 156.674 887.42 152.647 887.42 137.88C887.42 122.345 887.995 119.661 893.173 110.263C900.653 96.6468 912.159 88.9756 925.009 88.9756C937.474 88.9756 943.42 91.6605 952.05 100.866L959.337 108.729L977.556 96.6468C987.529 90.1263 995.776 83.6057 995.776 82.455C995.776 78.6194 978.899 60.7838 969.502 54.8386C951.283 43.3318 923.283 39.6879 900.269 46.0167Z" fill="#686868"/>
<path d="M334.132 139.797V233.195L388.406 232.427C449.584 231.468 453.995 230.701 469.337 217.085C485.063 203.085 490.625 184.866 484.871 165.304C482.57 157.441 479.693 152.838 473.556 147.085C468.953 142.674 463.2 138.647 460.899 137.879C456.871 136.729 457.255 136.153 465.31 128.866C479.693 116.4 483.337 95.8794 474.899 75.5507C470.871 65.9616 461.858 57.3315 450.351 52.1534C440.954 47.9342 438.269 47.7424 387.447 47.1671L334.132 46.5918V139.797ZM425.228 91.8521C431.365 97.7973 431.365 106.236 425.419 113.331C421.008 118.51 419.858 118.701 401.447 119.277L382.077 120.044V103.551V87.0575H401.255C419.282 87.0575 421.008 87.4411 425.228 91.8521ZM430.981 163.77C435.008 167.605 435.775 169.907 435.392 176.044C434.433 188.318 428.488 191.386 402.981 192.153L382.077 192.921V175.277V157.633L403.94 158.4C424.269 158.975 426.186 159.359 430.981 163.77Z" fill="#686868"/>
<path d="M1013.04 139.799V232.812H1037.97H1062.9V196.374V159.936H1089.75H1116.6V196.374V232.812H1141.53H1166.46V139.799V46.7852H1141.53H1116.6V80.3468V113.908H1089.75H1062.9V80.3468V46.7852H1037.97H1013.04V139.799Z" fill="#686868"/>
</svg>
