<?xml version="1.0" encoding="UTF-8"?>
<svg width="180px" height="40px" viewBox="0 0 180 40" version="1.1" xmlns="http://www.w3.org/2000/svg" xmlns:xlink="http://www.w3.org/1999/xlink">
    <title>Bosch-logotype</title>
    <g id="Page-1" stroke="none" stroke-width="1" fill="none" fill-rule="evenodd" opacity="0.3">
        <g id="Extra-Large" transform="translate(-369, -4083)" fill="#FFFFFF" fill-rule="nonzero">
            <g id="Bosch-logotype" transform="translate(369, 4083)">
                <g id="Group" transform="translate(59.917, 6.0581)">
                    <path d="M16.9294606,13.4024896 C16.9294606,13.4024896 20.5809129,12.1576763 20.5809129,8.00829876 C20.5809129,3.15352697 17.1369295,0.746887967 12.406639,0.746887967 L0,0.746887967 L0,27.1369295 L13.4854772,27.1369295 C17.6348548,27.1369295 21.7012448,24.2323651 21.7012448,19.7925311 C21.7012448,14.5228216 16.9294606,13.4439834 16.9294606,13.4024896 Z M6.47302905,6.22406639 L11.2863071,6.22406639 C12.780083,6.22406639 13.7759336,7.21991701 13.7759336,8.71369295 C13.7759336,9.87551867 12.8630705,11.120332 11.1618257,11.120332 L6.43153527,11.120332 L6.43153527,6.22406639 L6.47302905,6.22406639 Z M11.3278008,21.6182573 L6.51452282,21.6182573 L6.51452282,16.4315353 L11.2033195,16.4315353 C13.5684647,16.4315353 14.6887967,17.4688797 14.6887967,19.0041494 C14.6887967,20.9128631 13.2780083,21.6182573 11.3278008,21.6182573 Z" id="Shape"></path>
                    <path d="M35.9751037,0.0829875519 C28.340249,0.0829875519 23.8589212,6.18257261 23.8589212,13.9004149 C23.8589212,21.659751 28.340249,27.7178423 35.9751037,27.7178423 C43.6514523,27.7178423 48.0912863,21.659751 48.0912863,13.9004149 C48.0912863,6.18257261 43.6514523,0.0829875519 35.9751037,0.0829875519 Z M35.9751037,21.4107884 C32.2406639,21.4107884 30.373444,18.0497925 30.373444,13.9004149 C30.373444,9.75103734 32.2406639,6.43153527 35.9751037,6.43153527 C39.7095436,6.43153527 41.6182573,9.79253112 41.6182573,13.9004149 C41.6182573,18.0497925 39.7095436,21.4107884 35.9751037,21.4107884 Z" id="Shape"></path>
                    <path d="M62.1576763,11.0788382 L61.2448133,10.8713693 C59.0041494,10.4149378 57.219917,9.8340249 57.219917,8.21576763 C57.219917,6.47302905 58.9211618,5.76763485 60.4149378,5.76763485 C62.6141079,5.76763485 64.5643154,6.84647303 65.8091286,8.21576763 L69.9170124,4.14937759 C68.0497925,2.03319502 65.0207469,0 60.2904564,0 C54.7302905,0 50.5394191,3.1120332 50.5394191,8.29875519 C50.5394191,13.0290456 53.9419087,15.3526971 58.0912863,16.2240664 L59.0041494,16.4315353 C62.4481328,17.1369295 63.7344398,17.6763485 63.7344398,19.3360996 C63.7344398,20.9128631 62.3236515,21.9502075 60.1659751,21.9502075 C57.593361,21.9502075 55.2697095,20.8298755 53.4854772,18.5477178 L49.2946058,22.6970954 C51.6182573,25.4771784 54.5643154,27.6348548 60.2489627,27.6348548 C65.186722,27.6348548 70.4564315,24.813278 70.4564315,19.0456432 C70.4979253,13.0290456 65.93361,11.8672199 62.1576763,11.0788382 Z" id="Path"></path>
                    <path d="M85.186722,21.4107884 C82.2821577,21.4107884 79.253112,19.0041494 79.253112,13.7344398 C79.253112,9.04564315 82.0746888,6.43153527 85.0207469,6.43153527 C87.3443983,6.43153527 88.7136929,7.51037344 89.7925311,9.37759336 L95.1037344,5.85062241 C92.4481328,1.82572614 89.2946058,0.124481328 84.9377593,0.124481328 C76.9709544,0.124481328 72.6556017,6.30705394 72.6556017,13.7759336 C72.6556017,21.6182573 77.4273859,27.7593361 84.8547718,27.7593361 C90.0829876,27.7593361 92.5726141,25.93361 95.2697095,22.033195 L89.9170124,18.4232365 C88.8381743,20.1659751 87.6763485,21.4107884 85.186722,21.4107884 Z" id="Path"></path>
                    <polygon id="Path" points="112.821577 0.705394191 112.821577 10.4149378 104.813278 10.4149378 104.813278 0.705394191 97.8838174 0.705394191 97.8838174 27.0954357 104.813278 27.0954357 104.813278 16.6804979 112.821577 16.6804979 112.821577 27.0954357 119.751037 27.0954357 119.751037 0.705394191"></polygon>
                </g>
                <g id="Group">
                    <path d="M20,0 C8.9626556,0 0,8.9626556 0,20 C0,31.0373444 8.9626556,40 20,40 C31.0373444,40 40,31.0373444 40,20 C40,8.9626556 31.0373444,0 20,0 Z M20,38.1327801 C10,38.1327801 1.86721992,30 1.86721992,20 C1.86721992,10 10,1.86721992 20,1.86721992 C30,1.86721992 38.1327801,10 38.1327801,20 C38.1327801,30 30,38.1327801 20,38.1327801 Z" id="Shape"></path>
                    <path d="M28.2572614,7.51037344 L26.8879668,7.51037344 L26.8879668,14.3568465 L13.153527,14.3568465 L13.153527,7.51037344 L11.7427386,7.51037344 C7.71784232,10.2074689 5.02074689,14.7717842 5.02074689,20 C5.02074689,25.2282158 7.71784232,29.7925311 11.7427386,32.4896266 L13.153527,32.4896266 L13.153527,25.6431535 L26.8879668,25.6431535 L26.8879668,32.4896266 L28.2572614,32.4896266 C32.3236515,29.7925311 34.9792531,25.2282158 34.9792531,20 C34.9792531,14.7717842 32.3236515,10.2074689 28.2572614,7.51037344 Z M11.2448133,29.7925311 C8.46473029,27.3443983 6.84647303,23.8174274 6.84647303,20 C6.84647303,16.1825726 8.46473029,12.6556017 11.2448133,10.2074689 L11.2448133,29.7925311 Z M26.8879668,23.7344398 L13.153527,23.7344398 L13.153527,16.2240664 L26.8879668,16.2240664 C26.8879668,16.2655602 26.8879668,23.7344398 26.8879668,23.7344398 Z M28.7551867,29.7510373 L28.7551867,25.6016598 L28.7551867,25.6016598 L28.7551867,14.3568465 L28.7551867,14.3568465 L28.7551867,10.2074689 C31.4937759,12.6556017 33.1120332,16.1825726 33.1120332,19.9585062 C33.1120332,23.7759336 31.4937759,27.3029046 28.7551867,29.7510373 Z" id="Shape"></path>
                </g>
            </g>
        </g>
    </g>
</svg>