<svg width="1209" height="190" viewBox="0 0 1209 190" fill="none" xmlns="http://www.w3.org/2000/svg">
<path d="M51.2331 4.54187C43.0105 7.33743 32.8904 16.1901 25.3003 26.9064C14.2314 42.2821 12.6501 46.9413 12.6501 66.0444C12.6501 96.3298 19.924 103.319 62.302 113.103C98.9874 121.49 104.68 125.217 99.3036 138.263C94.5598 149.446 63.2507 152.241 59.4557 141.991C57.2419 135.934 50.6006 134.536 28.4628 134.536H0V148.048C0 166.219 14.8639 184.39 33.2066 188.584C41.113 189.981 62.6182 190.447 81.2772 189.515C108.791 188.118 118.279 185.788 130.296 177.401C149.272 163.423 158.759 141.991 157.494 115.433C156.229 87.9431 148.007 80.4882 107.526 71.6356C66.4133 62.317 63.2507 60.9192 63.2507 52.5325C63.2507 36.225 94.5598 31.5657 104.364 46.0095C109.74 53.9303 114.8 55.3281 137.887 55.3281H165.084L162.871 42.748C157.811 11.9967 143.895 2.67816 99.6199 1.28036C80.6447 0.348511 58.8232 2.21222 51.2331 4.54187Z" fill="#686868"/>
<path d="M238.772 2.67771C203.668 14.3259 182.479 44.1453 175.521 92.136C173.623 105.182 174.256 107.512 177.735 105.182C180.265 103.784 190.385 101.455 200.189 99.5908C216.95 96.3293 217.583 95.3975 219.48 80.9537C220.745 71.1692 225.805 59.9869 232.763 51.1343C241.934 39.0201 246.362 36.6905 259.328 36.6905C272.295 36.6905 276.722 39.0201 286.21 51.1343C292.219 59.055 297.279 68.3736 297.279 72.101C297.279 76.7603 301.706 77.6922 318.784 75.3625C330.485 73.9648 341.238 71.1692 342.819 68.8395C344.4 66.9758 344.717 58.1232 343.452 48.8046C340.922 29.7016 327.323 11.0644 310.561 4.07549C299.176 -0.583786 251.422 -1.51565 238.772 2.67771Z" fill="#686868"/>
<path d="M1086.96 7.33662C1053.76 25.5078 1032.88 69.3051 1032.88 121.023C1032.57 182.992 1054.07 195.572 1145.79 187.185L1179.63 184.389V154.57V125.216H1194.17H1208.41L1198.28 104.25L1188.16 83.2829H1153.69C1135.03 83.2829 1119.54 84.2148 1119.54 85.6126C1119.54 87.0104 1123.33 96.3289 1127.76 106.579C1133.14 118.693 1138.83 125.216 1144.21 126.148L1152.74 127.546L1143.89 136.399C1132.82 147.581 1109.73 151.308 1097.72 143.854C1066.41 124.751 1088.86 41.3494 1125.23 41.3494C1137.88 41.3494 1148 48.8042 1148 57.6569C1148 63.248 1153.69 64.6458 1176.46 64.6458H1204.93L1202.71 49.2702C1198.28 14.7915 1182.47 3.14326 1136.93 0.813629C1109.42 -0.584167 1098.98 0.813629 1086.96 7.33662Z" fill="#686868"/>
<path d="M373.497 21.3144C371.915 31.0989 369.702 45.5427 368.437 53.4634L366.539 67.9072L389.626 65.5776C402.276 64.6457 413.345 62.782 413.977 61.8502C414.61 61.3842 416.823 47.8723 419.037 32.4967L423.148 4.07504H399.746H376.659L373.497 21.3144Z" fill="#686868"/>
<path d="M514.228 11.9961C513.279 16.6553 511.698 28.3036 510.433 37.6221L508.535 55.3274H532.254H555.973L557.871 37.6221C559.136 28.3036 560.717 16.6553 561.666 11.9961C563.247 5.00713 560.717 4.07528 539.528 4.07528C519.92 4.07528 515.809 5.47306 514.228 11.9961Z" fill="#686868"/>
<path d="M586.018 27.3716L582.855 50.668H620.173C641.046 50.668 657.808 49.7361 657.808 48.3383C657.808 47.4065 654.645 36.6901 650.85 25.0419L643.892 4.07514H616.378H589.181L586.018 27.3716Z" fill="#686868"/>
<path d="M694.175 18.9848C692.91 27.3716 691.329 38.0879 690.696 42.2813C689.115 49.7361 691.645 50.668 711.253 50.668C723.27 50.668 734.023 49.2702 734.656 46.9405C735.604 45.0768 737.186 34.8264 738.451 23.6441L740.664 4.07514H718.527H696.389L694.175 18.9848Z" fill="#686868"/>
<path d="M754.581 7.80299C753.632 10.1326 752.051 20.3831 750.786 31.0994L748.889 49.7365H770.394C796.01 49.7365 794.429 41.8158 783.044 122.887C778.617 153.639 774.821 180.196 774.821 182.06C774.821 184.39 785.258 185.788 797.908 185.788H821.311L830.166 123.819C834.91 90.2723 839.97 59.521 841.235 55.7936C843.132 50.6684 849.141 49.2706 864.321 50.2025C875.706 50.6684 885.51 49.7365 886.459 47.4069C887.408 45.5432 888.989 34.8268 890.254 23.6445L892.468 4.07556H824.157C786.839 4.07556 755.53 5.93929 754.581 7.80299Z" fill="#686868"/>
<path d="M906.067 9.6667C905.118 12.9282 899.109 53.9299 892.468 100.523L880.134 185.788H945.598H1011.38L1013.28 171.344C1017.07 142.922 1018.65 143.854 974.694 143.854H933.897L935.478 129.876L936.743 115.898H975.959H1014.86L1017.39 95.8634L1020.23 76.2944L982.6 74.8967L945.282 73.4989L946.231 60.9188L947.18 48.3388L988.925 46.941C1034.15 45.5432 1030.67 47.8728 1035.41 16.6556L1037.31 4.07556H972.48C923.461 4.07556 907.015 5.47336 906.067 9.6667Z" fill="#686868"/>
<path d="M580.324 65.5781C579.691 68.8396 576.213 93.5338 572.418 120.558C568.623 147.581 564.828 173.208 563.879 177.867C562.614 185.322 564.511 186.254 585.7 184.856L608.787 183.458L615.428 135.467C619.223 108.909 623.018 86.5449 623.651 85.1471C624.599 84.2152 633.455 106.114 643.575 134.535L662.234 185.788H688.166C710.304 185.788 714.416 184.39 715.997 177.401C716.629 173.208 720.424 148.513 724.219 122.887C727.698 97.2612 731.493 72.567 732.442 67.9077C734.023 60.9188 731.493 59.9869 710.62 59.9869H687.218L684.371 84.2152L681.525 108.909L672.038 84.6811L662.55 59.9869H622.069C592.658 59.9869 581.273 61.3847 580.324 65.5781Z" fill="#686868"/>
<path d="M509.801 68.8396C506.322 71.6352 490.193 165.753 490.193 182.06C490.193 184.39 500.63 185.788 513.28 185.788H536.683L543.64 135.467C547.752 107.978 551.547 80.9537 552.495 74.8967C554.077 65.1122 553.128 64.6462 534.153 64.6462C523.084 64.6462 512.015 66.5099 509.801 68.8396Z" fill="#686868"/>
<path d="M383.616 82.8174C374.761 84.6812 366.222 87.0108 365.273 88.8745C363.06 92.136 351.042 169.014 351.042 179.731C351.042 184.39 364.008 185.788 412.395 185.788H473.432L476.595 162.491L479.757 139.195H441.807H404.173L406.386 121.489C407.651 112.171 409.233 98.659 410.181 91.2041C412.079 77.2263 413.028 77.6922 383.616 82.8174Z" fill="#686868"/>
<path d="M327.322 94.9312C325.74 95.863 319.099 97.7267 312.458 99.1245C303.603 101.454 300.124 105.182 297.91 114.966C293.482 133.137 283.679 146.649 270.396 153.172C260.592 157.831 256.481 157.366 244.779 150.843C237.189 146.649 229.283 139.194 227.702 134.535C224.855 126.614 223.59 126.614 199.555 135.467C174.887 144.786 174.571 145.251 177.734 155.968C185.007 178.798 200.82 187.651 237.505 189.515C298.542 192.776 329.535 168.082 341.869 105.648C344.083 93.9993 343.45 92.6015 337.442 93.0675C333.647 93.0675 329.219 93.9993 327.322 94.9312Z" fill="#686868"/>
</svg>
