<svg width="1414" height="280" viewBox="0 0 1414 280" fill="none" xmlns="http://www.w3.org/2000/svg">
<path d="M391.783 137.887V219.221H412.543H433.303V186.341V153.461H471.362H509.422V186.341V219.221H530.182H550.942V137.887V56.552H530.182H509.422V89.4319V122.312H471.362H433.303V89.4319V56.552H412.543H391.783V137.887Z" fill="#686868"/>
<path d="M575.855 121.62C576.893 196.378 578.623 201.224 605.61 213.337C628.446 223.374 674.117 223.374 696.953 213.337C724.979 200.532 727.401 193.609 727.401 119.543V56.5521H708.371H689.341V109.852C689.341 138.925 687.611 167.652 685.881 173.189C681.383 185.649 669.966 191.533 649.898 191.533C619.104 191.533 613.914 178.035 613.568 100.507L613.222 56.5521H593.846H574.471L575.855 121.62Z" fill="#686868"/>
<path d="M780.337 110.89C766.844 141.001 749.89 177.689 743.316 192.225L731.206 219.221H752.658H774.11L781.029 200.878L788.295 182.88L824.625 181.842L860.609 180.803L867.528 198.801C871.334 208.492 876.178 217.145 878.254 218.183C880.33 218.875 890.71 219.221 901.09 218.529L920.12 217.491L883.444 137.887L846.423 58.2824L826.009 57.2441L805.249 56.2058L780.337 110.89ZM836.043 123.004C840.887 135.118 845.039 145.847 845.039 147.231C845.039 148.962 835.697 150 824.279 150C812.861 150 803.519 149.308 803.519 148.27C803.519 143.77 822.203 101.546 824.279 101.546C825.663 101.546 830.853 111.236 836.043 123.004Z" fill="#686868"/>
<path d="M894.174 60.705C895.212 63.1277 908.014 99.8148 923.238 142.04L950.571 219.221H974.791H999.011L1012.5 167.997C1019.77 139.963 1027.04 116.082 1028.42 114.351C1029.46 112.967 1033.26 119.889 1036.03 129.926C1039.15 139.963 1046.76 164.19 1052.64 183.918L1063.71 219.567L1088.28 218.529L1112.5 217.49L1138.1 141.347C1151.94 99.4687 1163.36 63.1277 1163.36 60.705C1163.36 57.2439 1158.17 56.5517 1143.64 57.2439L1123.92 58.2822L1106.62 116.428L1088.97 174.573L1081.36 151.038C1077.21 138.232 1068.9 111.582 1062.67 91.8544L1051.6 56.2056L1028.77 57.2439L1005.93 58.2822L990.707 114.351C982.057 145.501 974.445 169.728 973.407 169.036C972.369 167.997 963.719 142.732 954.031 112.621L936.385 58.2822L914.588 57.2439C897.634 56.5517 893.136 57.2439 894.174 60.705Z" fill="#686868"/>
<path d="M1225.64 59.6664C1186.54 67.6268 1170.28 91.1619 1170.28 139.27C1170.28 170.42 1173.74 182.187 1186.89 196.378C1204.19 214.721 1219.07 219.221 1268.2 219.221H1312.14V203.992V188.763L1270.62 187.379C1225.29 186.341 1221.14 184.61 1215.61 164.536L1212.15 153.461H1262.32H1312.14V137.886V122.311H1263.7C1211.8 122.311 1209.72 121.619 1219.07 104.314C1225.29 92.8924 1243.29 87.7009 1279.27 87.7009H1312.14V72.1261V56.5514L1275.12 56.8975C1254.36 57.2436 1232.21 58.2819 1225.64 59.6664Z" fill="#686868"/>
<path d="M1343.28 137.886V219.221H1362.31H1381.34V137.886V56.5515H1362.31H1343.28V137.886Z" fill="#686868"/>
<path d="M124.846 17.6382C88.5791 30.3473 83.497 67.5502 110.524 121.391C125.539 150.968 154.183 197.414 158.572 199.032C162.268 200.649 164.81 168.299 164.579 121.622C164.348 73.7892 160.189 45.8293 149.332 19.4868C146.098 12.0924 142.171 11.8613 124.846 17.6382Z" fill="#686868"/>
<path d="M188.374 20.6421C183.985 31.0404 180.058 43.2874 181.444 43.2874C182.137 43.2874 181.675 45.136 180.289 47.2156C176.131 55.3032 174.283 84.4186 174.514 135.717C174.745 189.095 175.669 199.263 179.134 199.263C181.213 199.263 200.387 172.92 200.618 169.685C200.849 168.53 202.928 164.832 205.469 161.135C213.554 149.582 235.961 104.984 240.35 90.8887C245.663 74.4824 246.125 52.5303 241.274 42.3631C235.961 31.0404 224.18 21.3353 211.475 16.9449C195.304 11.6302 192.301 12.0923 188.374 20.6421Z" fill="#686868"/>
<path d="M48.1553 63.6221C39.3773 72.8651 29.4442 92.9685 28.2892 104.06C26.4412 119.542 31.0612 131.789 43.3043 144.267C55.5474 156.976 66.1735 165.064 79.5716 172.458C89.9667 178.004 97.5898 182.625 99.2068 184.243C103.365 188.402 145.869 210.123 147.024 208.737C148.641 207.119 128.082 164.833 119.766 152.355C116.07 146.809 113.067 141.725 113.067 140.801C113.067 137.335 69.4075 72.8651 64.3255 68.7058C63.6325 68.0126 61.7845 65.2397 60.1674 62.2357C56.7024 55.7656 55.3164 55.7656 48.1553 63.6221Z" fill="#686868"/>
<path d="M277.772 62.9288C275.462 66.1639 269.918 73.5582 265.298 79.3351C260.678 85.1119 255.365 92.7374 253.748 95.9724C251.9 99.4385 249.821 103.136 248.666 104.522C238.733 117.924 211.013 163.908 212.168 165.526C212.399 165.988 211.937 167.143 210.782 167.836C208.01 169.685 191.608 203.191 191.608 206.888C191.608 210.585 195.073 210.354 199.462 206.195C201.31 204.346 203.62 202.729 204.544 202.729C207.317 202.729 257.444 174.538 258.137 172.458C258.599 171.303 259.985 170.378 261.371 170.378C263.912 170.378 282.392 156.514 283.547 153.741C284.009 152.586 285.395 151.892 286.781 151.892C291.17 151.892 304.568 135.255 307.802 125.55C312.191 112.841 311.036 96.6656 304.568 84.4187C300.641 76.5622 285.626 57.152 283.547 57.152C282.623 57.152 280.082 59.6938 277.772 62.9288Z" fill="#686868"/>
<path d="M5.6514 144.96C2.87939 149.582 5.4204 177.541 9.34742 186.553C15.3535 199.956 29.6755 212.896 43.3046 217.286C52.5446 220.29 64.0947 221.214 96.6658 221.214C124.386 221.214 138.477 220.29 138.477 218.904C138.477 215.207 83.9608 181.701 43.7666 160.442C31.7545 154.203 19.7425 147.502 17.2015 145.884C11.8884 142.187 7.73041 141.725 5.6514 144.96Z" fill="#686868"/>
<path d="M318.659 147.04C314.27 149.351 303.875 154.896 296.021 159.749C287.936 164.37 280.313 168.067 279.158 168.067C278.003 168.067 277.079 168.761 277.079 169.916C277.079 170.84 273.613 172.92 269.686 174.769C265.528 176.617 261.601 178.697 260.908 179.39C260.215 180.314 257.212 182.163 253.978 183.78C242.428 190.019 232.726 195.565 224.41 201.111C219.79 204.115 211.936 208.968 207.316 211.74C202.465 214.744 198.538 217.979 198.538 219.135C198.538 220.29 216.787 221.214 240.811 221.214C274.306 221.214 285.626 220.29 294.404 217.286C307.109 213.127 322.355 199.031 328.592 185.86C335.984 170.378 336.677 142.418 329.516 142.649C328.13 142.88 323.048 144.729 318.659 147.04Z" fill="#686868"/>
<path d="M116.994 227.222C116.532 227.685 102.903 228.147 86.5017 228.378C69.8695 228.609 51.1584 229.302 44.4594 229.995L32.4473 230.92L38.2223 239.469C44.9214 249.637 53.4684 256.338 64.3255 260.035C79.5716 265.35 87.6567 263.039 118.842 243.398C138.246 231.151 141.018 225.374 127.158 226.298C121.845 226.529 117.225 226.991 116.994 227.222Z" fill="#686868"/>
<path d="M200.848 229.071C200.848 230.689 203.62 233.461 207.316 235.31C210.781 237.159 214.015 239.007 214.708 239.7C217.48 242.473 230.647 250.561 241.273 256.338C258.136 265.119 273.382 264.194 286.78 253.103C292.324 248.481 298.561 241.78 300.64 237.852L304.798 230.92L292.555 229.995C286.087 229.302 267.145 228.609 250.513 228.378C234.112 227.916 216.094 227.454 210.781 226.991C204.082 226.529 200.848 227.222 200.848 229.071Z" fill="#686868"/>
</svg>
