<svg width="800" height="800" viewBox="0 0 800 800" fill="none" xmlns="http://www.w3.org/2000/svg">
<g clip-path="url(#clip0_2002_238)">
<path d="M628.571 0H171.429C76.7512 0 0 76.7512 0 171.429V628.571C0 723.249 76.7512 800 171.429 800H628.571C723.249 800 800 723.249 800 628.571V171.429C800 76.7512 723.249 0 628.571 0Z" fill="url(#paint0_radial_2002_238)"/>
<path d="M628.571 0H171.429C76.7512 0 0 76.7512 0 171.429V628.571C0 723.249 76.7512 800 171.429 800H628.571C723.249 800 800 723.249 800 628.571V171.429C800 76.7512 723.249 0 628.571 0Z" fill="url(#paint1_radial_2002_238)"/>
<path d="M628.571 0H171.429C76.7512 0 0 76.7512 0 171.429V628.571C0 723.249 76.7512 800 171.429 800H628.571C723.249 800 800 723.249 800 628.571V171.429C800 76.7512 723.249 0 628.571 0Z" fill="url(#paint2_radial_2002_238)"/>
<path d="M600 242.857C600 266.526 580.812 285.714 557.143 285.714C533.475 285.714 514.286 266.526 514.286 242.857C514.286 219.188 533.475 200 557.143 200C580.812 200 600 219.188 600 242.857Z" fill="white"/>
<path fill-rule="evenodd" clip-rule="evenodd" d="M400 542.857C478.897 542.857 542.857 478.897 542.857 400C542.857 321.103 478.897 257.143 400 257.143C321.103 257.143 257.143 321.103 257.143 400C257.143 478.897 321.103 542.857 400 542.857ZM400 485.714C447.34 485.714 485.714 447.34 485.714 400C485.714 352.66 447.34 314.286 400 314.286C352.66 314.286 314.285 352.66 314.285 400C314.285 447.34 352.66 485.714 400 485.714Z" fill="white"/>
<path fill-rule="evenodd" clip-rule="evenodd" d="M114.286 388.571C114.286 292.563 114.286 244.557 132.971 207.887C149.406 175.631 175.631 149.406 207.888 132.97C244.558 114.286 292.563 114.286 388.572 114.286H411.429C507.438 114.286 555.443 114.286 592.112 132.97C624.369 149.406 650.595 175.631 667.029 207.887C685.715 244.557 685.715 292.563 685.715 388.571V411.429C685.715 507.437 685.715 555.443 667.029 592.111C650.595 624.369 624.369 650.594 592.112 667.029C555.443 685.714 507.438 685.714 411.429 685.714H388.572C292.563 685.714 244.558 685.714 207.888 667.029C175.631 650.594 149.406 624.369 132.971 592.111C114.286 555.443 114.286 507.437 114.286 411.429V388.571ZM388.572 171.429H411.429C460.378 171.429 493.649 171.473 519.369 173.574C544.423 175.621 557.235 179.331 566.172 183.885C587.675 194.842 605.158 212.325 616.115 233.829C620.669 242.766 624.38 255.577 626.426 280.631C628.526 306.351 628.572 339.623 628.572 388.571V411.429C628.572 460.377 628.526 493.649 626.426 519.369C624.38 544.423 620.669 557.234 616.115 566.171C605.158 587.674 587.675 605.157 566.172 616.114C557.235 620.669 544.423 624.38 519.369 626.426C493.649 628.526 460.378 628.571 411.429 628.571H388.572C339.623 628.571 306.352 628.526 280.632 626.426C255.578 624.38 242.766 620.669 233.829 616.114C212.326 605.157 194.842 587.674 183.885 566.171C179.332 557.234 175.622 544.423 173.575 519.369C171.474 493.649 171.429 460.377 171.429 411.429V388.571C171.429 339.623 171.474 306.351 173.575 280.631C175.622 255.577 179.332 242.766 183.885 233.829C194.842 212.325 212.326 194.842 233.829 183.885C242.766 179.331 255.578 175.621 280.632 173.574C306.352 171.473 339.623 171.429 388.572 171.429Z" fill="white"/>
</g>
<defs>
<radialGradient id="paint0_radial_2002_238" cx="0" cy="0" r="1" gradientUnits="userSpaceOnUse" gradientTransform="translate(285.714 600) rotate(-55.3758) scale(729.131)">
<stop stop-color="#B13589"/>
<stop offset="0.79309" stop-color="#C62F94"/>
<stop offset="1" stop-color="#8A3AC8"/>
</radialGradient>
<radialGradient id="paint1_radial_2002_238" cx="0" cy="0" r="1" gradientUnits="userSpaceOnUse" gradientTransform="translate(257.143 828.571) rotate(-65.1363) scale(645.549)">
<stop stop-color="#E0E8B7"/>
<stop offset="0.444662" stop-color="#FB8A2E"/>
<stop offset="0.71474" stop-color="#E2425C"/>
<stop offset="1" stop-color="#E2425C" stop-opacity="0"/>
</radialGradient>
<radialGradient id="paint2_radial_2002_238" cx="0" cy="0" r="1" gradientUnits="userSpaceOnUse" gradientTransform="translate(-42.8571 28.5714) rotate(-8.1301) scale(1111.17 237.667)">
<stop offset="0.156701" stop-color="#406ADC"/>
<stop offset="0.467799" stop-color="#6A45BE"/>
<stop offset="1" stop-color="#6A45BE" stop-opacity="0"/>
</radialGradient>
<clipPath id="clip0_2002_238">
<rect width="800" height="800" fill="white"/>
</clipPath>
</defs>
</svg>
