<svg width="846" height="280" viewBox="0 0 846 280" fill="none" xmlns="http://www.w3.org/2000/svg">
<g clip-path="url(#clip0_60_1223)">
<path fill-rule="evenodd" clip-rule="evenodd" d="M58.0638 237.704C55.3824 252.933 40.8787 265.271 25.5462 265.271C10.238 265.271 0.000117779 252.933 2.68148 237.704C5.26534 222.475 19.8666 210.088 35.1503 210.088C50.4097 210.088 60.7451 222.475 58.0638 237.704ZM173.655 276.396L196.593 159.156H151.083L128.169 276.396H173.655ZM204.149 123.136C202.004 135.766 189.938 145.918 177.336 145.918C164.66 145.918 156.177 135.742 158.395 123.136C160.614 110.555 172.607 100.378 185.233 100.378C197.909 100.378 206.367 110.555 204.149 123.136Z" fill="#686868"/>
<path d="M301.141 155.804C281.08 156.581 262.164 167.074 259.921 168.385L261.725 159.156H216.215L193.302 276.395H238.787L254.339 196.973C264.797 186.261 277.058 185.071 287.296 186.82C294.779 188.204 295.998 193.208 295.803 196.9L280.3 276.395H325.834L343.287 186.699L343.458 185.848C343.738 184.203 343.876 182.538 343.872 180.869C343.555 161.511 320.642 155.027 301.141 155.804Z" fill="#686868"/>
<path fill-rule="evenodd" clip-rule="evenodd" d="M381.729 200.373L410.444 171.324L420.34 121.193H374.83L344.238 276.396H389.724L401.01 219.075L381.729 200.373Z" fill="#686868"/>
<path fill-rule="evenodd" clip-rule="evenodd" d="M447.251 200.373L529.52 121.217H471.31L392.941 200.397L471.31 276.396H529.52L447.251 200.373ZM91.9709 121.897C91.9709 121.897 78.9541 187.889 72.6894 219.002C67.8386 243.266 60.3795 270.299 30.8602 272.145C29.7145 272.34 28.6176 272.339 27.3013 272.339C19.1533 272.363 11.1925 269.906 4.48535 265.296C10.5794 272.704 20.281 276.954 30.8602 278.8C50.2148 282.346 73.0307 278.072 86.2181 270.056C110.033 256.042 116.932 232.895 121.929 207.902C126.195 186.602 138.968 121.897 138.968 121.897H91.9709Z" fill="#686868"/>
<path fill-rule="evenodd" clip-rule="evenodd" d="M589.509 238.749C567.327 238.749 550.995 220.824 553.042 198.746C555.041 176.643 574.64 158.743 596.797 158.743C618.979 158.743 635.311 176.643 633.288 198.746C631.241 220.848 611.594 238.749 589.509 238.749ZM600.624 117.38C555.553 117.38 515.674 153.812 511.506 198.746C507.41 243.679 540.611 280.112 585.706 280.112C630.753 280.112 670.608 243.679 674.776 198.746C678.92 153.812 645.72 117.38 600.624 117.38Z" fill="#686868"/>
<path d="M618.371 73.2718C616.88 70.6322 614.824 68.3519 612.35 66.5925C609.578 64.5764 606.522 62.9804 603.282 61.8563C599.883 60.6169 596.373 59.7059 592.8 59.136C582.116 57.5979 571.825 54.0451 562.476 48.6677C561.422 47.9548 560.539 47.0173 559.892 45.9231C559.066 44.75 558.585 43.3705 558.503 41.9398C558.503 37.2036 559.356 32.4916 560.892 27.7311C562.476 23.0677 564.524 19.3516 566.986 16.6556C570.935 12.2108 578.101 8.37327 588.437 5.09434C598.748 1.69397 610.351 0.0666504 623.295 0.0666504C630.997 0.0666504 636.969 0.67386 641.186 1.86399C645.404 3.00554 647.5 4.85146 647.5 7.2803C647.662 10.4741 647.095 13.6629 645.842 16.607C645.12 18.3717 643.89 19.8843 642.308 20.9546C641.04 21.6833 638.822 22.6548 635.677 23.8935C630.305 25.6787 625.185 28.1439 620.442 31.2286C619.463 32.0201 618.348 32.629 617.152 33.026L616.396 32.3702C616.396 31.4958 617.298 30.0871 619.248 28.2412C621.125 26.3952 623.465 24.7922 626.22 23.3835C629.218 21.8533 630.705 20.8818 630.705 20.4446C630.705 19.7402 629.047 19.3759 625.781 19.3759C615.86 19.3759 606.67 20.2746 598.236 22.0476C589.851 23.7964 583.196 26.1038 578.394 29.0184C573.494 31.8601 571.081 34.799 571.081 37.8594C571.081 39.7296 572.056 41.0168 574.128 41.7941C576.103 42.5713 580.539 43.8829 587.437 45.6559C594.263 47.4776 600.405 49.5906 605.817 51.9466C613.617 55.2498 619.37 58.6988 623.124 62.2935C626.878 65.8638 628.73 69.8714 628.73 74.2919C628.73 77.3037 627.999 80.3883 626.561 83.4243C624.984 86.657 622.781 89.5462 620.077 91.9253C617.201 94.4513 613.983 96.5886 610.229 98.2645C606.359 99.8308 602.374 101.098 598.309 102.054C587.941 104.505 577.325 105.76 566.669 105.794C557.26 105.794 549.776 104.92 543.999 103.146C538.32 101.373 535.419 98.7017 535.419 95.1313C535.419 93.5526 536.443 91.0266 538.344 87.6019C539.828 84.664 542.221 82.2797 545.169 80.8012C547.315 79.9268 549.585 79.394 551.897 79.2225C554.018 79.0767 555.066 79.3196 555.066 79.9511L554.822 80.4854L554.286 80.8983L553.628 81.1898C552.555 81.627 551.678 81.967 550.995 82.1613L549.411 82.89L548.801 83.9344C548.801 85.0517 554.335 85.6346 565.45 85.6346C575.127 85.6346 583.025 85.246 589.168 84.5416C594.748 83.9804 600.234 82.7238 605.5 80.8012C610.229 78.9553 614.519 76.4293 618.371 73.2718ZM676.678 49.9307C672.242 52.6024 668.463 55.0312 665.27 57.2172C662.101 59.3303 659.444 61.5405 657.226 63.775C655.262 65.6406 653.745 67.9238 652.789 70.4543C652.028 73.6726 651.361 76.9125 650.791 80.1697C650.791 83.6672 653.277 85.416 658.25 85.416C660.492 85.416 664.344 83.4243 669.804 79.4896C668.896 77.2001 668.425 74.762 668.414 72.3003C668.414 68.9485 669.146 65.4995 670.462 61.9777C671.925 58.5045 673.972 54.4483 676.678 49.9307ZM693.254 70.9887V76.3807C689.719 79.5868 686.916 81.7242 684.722 82.7928C682.626 83.8615 679.506 84.2987 675.508 84.0801C668.488 92.3382 662.418 96.4186 657.031 96.4186C654.049 96.413 651.162 95.374 648.865 93.4797C646.237 91.3109 644.207 88.5106 642.966 85.3431C641.429 81.7341 640.658 77.8477 640.699 73.9276C640.699 70.4786 641.893 66.6654 644.112 62.5121C646.499 58.2197 649.496 54.2931 653.009 50.8536C656.641 47.2104 660.492 44.3686 664.636 42.1098C668.756 39.8996 672.607 38.7823 676.142 38.7823C678.677 38.7823 680.602 39.2195 682.065 39.9482C683.528 40.6768 684.259 41.7941 684.259 43.2028C684.259 44.2715 683.649 45.5102 682.431 46.8946C684.454 47.2832 685.843 47.9876 686.623 48.9834C687.355 49.955 687.745 51.8495 687.745 54.424C687.745 57.0229 687.086 60.2047 685.892 64.1394C684.673 68.0255 683.04 71.6688 680.944 75.0934L682.406 76.5507H683.625C684.551 76.5507 685.38 76.3078 686.306 75.8707C687.16 75.3849 687.964 74.9234 688.671 74.4133C689.353 73.9276 690.938 72.7617 693.278 70.9887" fill="#686868"/>
<path d="M707.489 55.857C710.268 53.1367 712.95 50.0278 715.607 46.5789C720.634 39.7883 724.908 32.4754 728.355 24.7679C729.434 22.5422 730.095 20.1385 730.305 17.6757C730.305 16.3884 729.915 15.7812 729.062 15.7812C728.721 15.7812 728.087 16.0727 727.161 16.6556C723.919 19.3273 720.238 24.5979 716.143 32.3216C712.228 39.7513 709.318 47.6654 707.489 55.857ZM731.573 70.2843V76.2107C720.311 91.0023 711.243 98.4345 704.223 98.4345C700.396 98.4345 697.398 96.3214 695.253 92.241C693.059 88.0634 691.962 82.6228 691.962 75.8949C691.962 70.4543 693.278 63.9936 695.789 56.4642C698.47 48.9591 701.834 41.3569 706.149 33.6332C710.463 25.9095 714.973 19.1816 719.604 13.4252C724.236 7.69318 728.575 3.63702 732.524 1.3782C733.635 0.591286 734.925 0.0906399 736.278 -0.0791016C737.423 -0.0791016 738.179 0.430954 738.569 1.3782C738.935 2.34974 739.105 4.07421 739.105 6.47876C739.105 13.911 736.107 23.0677 730.037 33.876C723.968 44.6844 715.485 55.7356 704.686 67.0054C704.243 69.1092 703.974 71.2456 703.882 73.3932C703.744 76.3433 704.509 79.2656 706.076 81.7727C707.538 83.8615 709.61 84.9788 712.267 84.9788C713.819 84.8691 715.307 84.3215 716.557 83.4C718.093 82.3556 719.775 81.0198 721.457 79.4896C723.212 77.9837 726.576 74.8991 731.573 70.2843Z" fill="#686868"/>
<path d="M778.765 47.9877C764.797 54.3512 754.852 59.7433 749.026 64.188C743.03 68.6085 740.08 73.2233 740.08 77.911C740.08 79.5869 740.373 81.0199 740.933 82.0886C741.543 83.2058 742.347 83.7402 743.371 83.7402C744.493 83.5873 745.571 83.2071 746.54 82.6229C752.338 79.1674 757.546 74.8139 761.97 69.7258C766.601 64.3581 772.208 57.1201 778.765 47.9877ZM740.251 56.8287C747.298 50.1995 755.301 44.6572 763.993 40.3854C771.647 36.815 777.546 35.042 781.714 35.042C782.86 35.042 783.884 35.4792 784.883 36.4021C785.858 37.3494 786.614 38.4181 787.174 39.6811C787.639 40.5304 787.929 41.4634 788.028 42.4257C788.039 42.847 787.94 43.2641 787.739 43.6349C787.537 44.0058 787.242 44.3175 786.882 44.5387C786.126 44.9759 784.834 45.5103 782.982 46.1904L784.371 49.4693L785.785 52.6996C786.053 53.5254 786.273 54.2541 786.273 54.8856C786.273 56.1972 784.956 58.6017 782.372 62.0749C779.764 65.5725 777.936 68.1713 776.888 69.8229C775.786 71.6547 775.228 73.7602 775.279 75.895C775.279 79.854 777.132 81.8214 780.788 81.8214C784.517 81.8214 790.392 78.3239 798.387 71.3288V76.1865C784.859 91.2453 775.108 98.7261 769.234 98.7261C767.186 98.7261 765.675 98.0946 764.797 96.6616C763.808 94.8216 763.345 92.7466 763.457 90.6624C763.457 86.4119 764.992 80.2912 768.064 72.3004C760.263 80.9227 754.413 87.1163 750.61 90.7595C746.832 94.4028 743.663 96.2487 741.177 96.2487C740.007 96.2487 738.569 95.2529 736.789 93.2126C732.583 88.1432 730.206 81.8144 730.037 75.2392C730.037 72.7618 730.281 70.6487 730.72 68.9243C731.232 67.2727 732.182 65.5725 733.596 63.7994C734.985 62.0264 737.179 59.6947 740.226 56.8287" fill="#686868"/>
<path d="M796.852 77.3035V72.1543C799.778 68.7054 801.947 65.7908 803.434 63.4105C802.046 62.962 800.773 62.2158 799.704 61.2245C798.924 60.3745 798.559 59.1115 798.559 57.387C798.559 55.4925 799.314 53.0394 800.972 50.0762C802.556 47.1616 804.555 44.3684 806.944 41.8181C808.664 39.6965 810.86 38.0076 813.355 36.8876L815.476 36.3047C816.621 36.3047 817.133 36.7905 817.133 37.8591C817.133 38.7578 816.329 40.6037 814.647 43.3483C825.689 41.6481 832.637 40.798 835.562 40.798C836.707 40.798 837.439 40.8952 837.877 41.0895C838.804 41.5996 839.535 42.6925 840.144 44.4899C840.735 46.1836 841.024 47.9674 840.997 49.7604C840.928 51.1027 840.414 52.384 839.535 53.4037C837.925 55.4051 836.208 57.3185 834.392 59.1357C831.564 62.1718 829.175 65.4507 827.225 69.094C825.348 72.6644 824.349 75.3361 824.349 77.182C824.349 79.6837 825.933 80.9224 829.004 80.9224C832.271 80.9224 837.975 77.6435 846.068 70.9642V76.3805C841.607 80.9953 837.95 84.7114 835.025 87.3588C832.559 89.7362 829.864 91.8675 826.981 93.7224C824.592 95.3254 822.35 96.1269 820.4 96.1269C818.206 96.1269 816.329 95.0825 814.793 93.018C813.306 90.9292 812.526 87.966 812.526 84.0799C812.526 81.7725 813.136 79.1494 814.306 76.2105C815.476 73.2716 817.182 70.0898 819.473 66.6409C821.789 63.1919 824.324 59.743 827.176 56.3183C823.516 57.084 819.843 57.7885 816.158 58.4314L811.308 59.3058C808.066 65.9365 803.215 71.9357 796.852 77.3035Z" fill="#686868"/>
</g>
<defs>
<clipPath id="clip0_60_1223">
<rect width="846" height="280" fill="white"/>
</clipPath>
</defs>
</svg>
