<svg width="1014" height="280" viewBox="0 0 1014 280" fill="none" xmlns="http://www.w3.org/2000/svg">
<path d="M82.9671 48.8815C80.6691 55.3018 77.5504 63.7283 76.2372 67.5403C74.7599 71.3523 72.9544 76.1675 72.2978 77.9732C69.3432 85.1959 70.4922 85.5972 94.6212 85.5972H118.422L120.392 79.9795C121.376 76.97 123.839 69.9479 125.972 64.5308C132.866 45.6714 134.508 39.8531 133.523 38.6493C133.031 38.0474 122.525 37.4455 110.051 37.4455H87.3989L82.9671 48.8815Z" fill="#686868"/>
<path d="M206.119 39.2689C190.803 43.7003 185.585 45.7146 176.497 51.3546C167.24 56.9945 153.607 70.4901 146.369 80.9643L143.34 85.5972H173.467H203.595L223.455 62.433C234.227 49.5417 243.147 38.6646 243.147 38.2618C243.147 36.6504 212.515 37.6575 206.119 39.2689Z" fill="#686868"/>
<path d="M277.324 46.763C275.287 52.1157 273.081 58.0631 272.233 60.2439C271.554 62.4246 269.348 68.5703 267.482 73.923C265.446 79.2757 263.918 83.8354 263.918 84.2318C263.918 84.6283 282.075 85.0248 304.303 85.0248C349.609 85.2231 350.458 85.4213 350.458 98.1092C350.458 104.255 349.1 107.625 344.349 113.771L338.41 121.701L305.831 122.692C276.305 123.683 272.572 124.08 265.446 128.243C254.586 134.389 246.441 142.913 239.314 155.403C229.133 173.443 225.23 172.254 292.595 172.254C330.435 172.254 352.324 171.461 353.003 170.271C353.512 169.082 355.548 168.289 357.415 168.289C364.032 168.289 376.759 151.24 384.904 132.01C398.139 100.488 409.847 65.7948 409.847 57.8649C409.847 51.1245 404.248 41.6086 399.327 39.6261C395.933 38.2384 373.365 37.4454 337.562 37.4454H281.057L277.324 46.763Z" fill="#686868"/>
<path d="M49.4882 127.465C47.4475 132.645 45.9169 137.029 45.9169 137.428C45.9169 137.826 43.536 144.203 40.645 151.575C37.7539 159.147 34.3526 167.715 33.1622 171.103C31.9718 174.291 29.4208 181.066 27.5501 186.047C19.5572 206.571 0 260.769 0 262.164C0 262.961 11.0541 263.758 24.489 263.758H48.978L57.8213 239.249C62.7531 225.899 68.5352 209.958 70.9161 203.98C73.297 198.003 76.188 189.833 77.5486 186.047C83.6708 168.911 83.3307 169.11 95.9153 168.512C109.86 167.715 111.391 169.11 118.704 186.645C123.636 198.401 125.336 202.785 137.581 234.866C140.642 242.438 144.213 252.201 145.914 256.186L148.805 263.758H253.393H357.982L362.063 253.397C364.104 247.618 368.696 236.26 371.927 228.29C375.158 220.32 377.369 212.349 376.859 210.755C376.008 208.364 364.954 207.966 297.269 208.364L218.701 208.962L211.218 229.884C207.136 241.441 203.055 252.799 202.204 255.19C199.483 263.559 198.463 262.164 187.409 233.869C184.518 226.696 180.606 216.335 178.566 210.955C176.525 205.375 171.423 192.822 167.342 182.66C163.26 172.697 159.859 163.929 159.859 163.132C159.859 159.546 144.043 134.24 139.111 129.856C129.588 121.487 120.574 119.494 85.5415 118.897L52.8895 118.1L49.4882 127.465Z" fill="#686868"/>
<path d="M972.705 216.964C966.532 216.964 961.142 215.92 956.534 213.834C951.926 211.747 948.101 208.791 945.058 204.966C942.015 201.054 939.712 196.446 938.147 191.143C936.669 185.84 935.93 179.928 935.93 173.407H960.446C960.446 179.232 961.359 184.318 963.185 188.665C965.098 192.925 968.271 195.055 972.705 195.055C976.53 195.055 979.008 193.447 980.138 190.23C981.268 187.013 981.833 183.318 981.833 179.145C981.833 174.277 979.921 169.321 976.095 164.279C972.357 159.149 968.445 154.585 964.359 150.586C957.317 143.631 951.448 136.763 946.754 129.982C942.146 123.2 939.842 115.246 939.842 106.117C939.842 95.3366 942.667 86.6427 948.318 80.0354C953.969 73.428 962.011 70.1244 972.444 70.1244C978.704 70.1244 983.963 70.9503 988.223 72.6021C992.57 74.254 996.048 76.7317 998.656 80.0354C1001.26 83.339 1003.13 87.3817 1004.26 92.1633C1005.48 96.9449 1006.09 102.466 1006.09 108.725H981.572C981.572 104.204 981.094 100.292 980.138 96.9884C979.182 93.6847 976.791 92.0329 972.966 92.0329C969.836 92.0329 967.619 93.3804 966.315 96.0755C965.011 98.6837 964.359 102.031 964.359 106.117C964.359 110.899 965.489 115.159 967.749 118.897C970.097 122.548 973.965 127.026 979.356 132.329C986.137 138.936 992.309 145.978 997.873 153.455C1003.52 160.932 1006.35 169.06 1006.35 177.841C1006.35 183.579 1005.57 188.839 1004 193.621C1002.52 198.402 1000.31 202.532 997.352 206.009C994.483 209.487 990.962 212.182 986.789 214.095C982.703 216.007 978.008 216.964 972.705 216.964Z" fill="#686868"/>
<path d="M815.717 214.877V72.2109H842.059V84.2084C846.319 80.2962 850.188 76.9925 853.666 74.2974C857.23 71.5154 860.664 70.1244 863.968 70.1244C868.662 70.1244 872.444 71.7327 875.313 74.9495C878.182 78.1662 880.312 81.8611 881.703 86.0341C885.442 82.2088 889.31 78.6009 893.31 75.2103C897.396 71.8197 901.525 70.1244 905.698 70.1244C910.045 70.1244 913.697 71.5154 916.653 74.2974C919.608 77.0795 921.825 80.6005 923.303 84.8605C924.781 89.1205 925.52 93.5109 925.52 98.0317V214.877H900.743V103.248C900.743 100.466 900.047 98.5098 898.656 97.3796C897.352 96.2494 895.7 95.6843 893.701 95.6843C891.701 95.6843 889.789 96.4668 887.963 98.0317C886.137 99.5096 884.746 100.988 883.79 102.466V214.877H859.012V103.248C859.012 100.466 858.317 98.5098 856.926 97.3796C855.622 96.2494 853.97 95.6843 851.97 95.6843C849.971 95.6843 848.058 96.4668 846.232 98.0317C844.407 99.5096 843.016 100.988 842.059 102.466V214.877H815.717Z" fill="#686868"/>
<path d="M770.436 216.964C759.917 216.964 751.614 213.356 745.528 206.14C739.53 198.837 736.53 189.926 736.53 179.406V107.682C736.53 96.5537 739.53 87.5121 745.528 80.557C751.527 73.6019 759.917 70.1244 770.697 70.1244C777.739 70.1244 783.781 71.7327 788.824 74.9495C793.953 78.1662 797.865 82.5566 800.561 88.1207C803.256 93.5978 804.603 99.8574 804.603 106.899V148.369H761.047V179.406C761.047 182.971 761.829 186.274 763.394 189.317C765.046 192.273 767.48 193.751 770.697 193.751C774.088 193.751 776.479 192.36 777.87 189.578C779.348 186.796 780.087 183.405 780.087 179.406V163.757H804.603V180.189C804.603 191.23 801.604 200.141 795.605 206.922C789.693 213.617 781.304 216.964 770.436 216.964ZM761.047 127.765H780.087V107.682C780.087 103.77 779.391 100.379 778 97.51C776.696 94.5541 774.262 93.0762 770.697 93.0762C767.393 93.0762 764.959 94.5976 763.394 97.6404C761.829 100.596 761.047 103.943 761.047 107.682V127.765Z" fill="#686868"/>
<path d="M715.754 216.963C707.495 216.963 701.192 215.137 696.845 211.486C692.498 207.834 689.499 202.618 687.847 195.837C686.282 189.056 685.5 180.97 685.5 171.581V95.9444H672.198V72.2101H685.5V37H711.842V72.2101H729.969V95.9444H711.842V175.363C711.842 180.927 712.668 185.056 714.32 187.751C715.972 190.36 718.667 191.664 722.405 191.664C724.057 191.664 725.492 191.533 726.709 191.273C728.013 191.012 729.056 190.707 729.839 190.36V214.485C728.1 215.181 726.187 215.746 724.101 216.18C722.101 216.702 719.319 216.963 715.754 216.963Z" fill="#686868"/>
<path d="M633.391 216.964C627.219 216.964 621.828 215.92 617.221 213.834C612.613 211.747 608.788 208.791 605.745 204.966C602.702 201.054 600.398 196.446 598.833 191.143C597.355 185.84 596.616 179.928 596.616 173.407H621.133C621.133 179.232 622.046 184.318 623.871 188.665C625.784 192.925 628.957 195.055 633.391 195.055C637.217 195.055 639.694 193.447 640.824 190.23C641.955 187.013 642.52 183.318 642.52 179.145C642.52 174.277 640.607 169.321 636.782 164.279C633.043 159.149 629.131 154.585 625.045 150.586C618.003 143.631 612.135 136.763 607.44 129.982C602.832 123.2 600.528 115.246 600.528 106.117C600.528 95.3366 603.354 86.6427 609.005 80.0354C614.656 73.428 622.698 70.1244 633.13 70.1244C639.39 70.1244 644.65 70.9503 648.91 72.6021C653.257 74.254 656.734 76.7317 659.342 80.0354C661.951 83.339 663.82 87.3817 664.95 92.1633C666.167 96.9449 666.776 102.466 666.776 108.725H642.259C642.259 104.204 641.781 100.292 640.824 96.9884C639.868 93.6847 637.477 92.0329 633.652 92.0329C630.522 92.0329 628.305 93.3804 627.001 96.0755C625.697 98.6837 625.045 102.031 625.045 106.117C625.045 110.899 626.175 115.159 628.436 118.897C630.783 122.548 634.652 127.026 640.042 132.329C646.823 138.936 652.996 145.978 658.56 153.455C664.211 160.932 667.036 169.06 667.036 177.841C667.036 183.579 666.254 188.839 664.689 193.621C663.211 198.402 660.994 202.532 658.038 206.009C655.169 209.487 651.648 212.182 647.475 214.095C643.389 216.007 638.695 216.964 633.391 216.964Z" fill="#686868"/>
<path d="M525.901 266C524.771 266 523.423 265.957 521.859 265.87C520.294 265.783 518.772 265.609 517.294 265.348V242.005C517.555 242.092 518.251 242.179 519.381 242.266C520.511 242.44 521.25 242.527 521.598 242.527C526.466 242.527 530.379 241.223 533.334 238.614C536.377 236.006 538.507 232.529 539.724 228.182C540.159 226.878 540.376 225.356 540.376 223.617C540.463 221.879 540.507 220.357 540.507 219.053L516.251 72.2139H542.072L552.504 161.152L553.026 171.063H554.069L554.591 161.152L565.024 72.2139H590.844L565.545 225.574C564.589 233.224 562.415 240.092 559.025 246.178C555.721 252.351 551.287 257.176 545.723 260.653C540.159 264.218 533.552 266 525.901 266Z" fill="#686868"/>
<path d="M476.775 216.964C470.602 216.964 465.212 215.92 460.604 213.834C455.997 211.747 452.171 208.791 449.129 204.966C446.086 201.054 443.782 196.446 442.217 191.143C440.739 185.84 440 179.928 440 173.407H464.517C464.517 179.232 465.43 184.318 467.255 188.665C469.168 192.925 472.341 195.055 476.775 195.055C480.6 195.055 483.078 193.447 484.208 190.23C485.338 187.013 485.904 183.318 485.904 179.145C485.904 174.277 483.991 169.321 480.166 164.279C476.427 159.149 472.515 154.585 468.429 150.586C461.387 143.631 455.519 136.763 450.824 129.982C446.216 123.2 443.912 115.246 443.912 106.117C443.912 95.3366 446.738 86.6427 452.389 80.0354C458.04 73.428 466.082 70.1244 476.514 70.1244C482.774 70.1244 488.034 70.9503 492.294 72.6021C496.641 74.254 500.118 76.7317 502.726 80.0354C505.334 83.339 507.204 87.3817 508.334 92.1633C509.551 96.9449 510.159 102.466 510.159 108.725H485.643C485.643 104.204 485.165 100.292 484.208 96.9884C483.252 93.6847 480.861 92.0329 477.036 92.0329C473.906 92.0329 471.689 93.3804 470.385 96.0755C469.081 98.6837 468.429 102.031 468.429 106.117C468.429 110.899 469.559 115.159 471.82 118.897C474.167 122.548 478.036 127.026 483.426 132.329C490.207 138.936 496.38 145.978 501.944 153.455C507.595 160.932 510.42 169.06 510.42 177.841C510.42 183.579 509.638 188.839 508.073 193.621C506.595 198.402 504.378 202.532 501.422 206.009C498.553 209.487 495.032 212.182 490.859 214.095C486.773 216.007 482.078 216.964 476.775 216.964Z" fill="#686868"/>
</svg>
