<svg width="121" height="20" viewBox="0 0 121 20" fill="none" xmlns="http://www.w3.org/2000/svg">
<path d="M15.9034 7.83883C15.9034 10.1099 15.137 12.0147 13.6281 13.5531C12.0952 15.0672 10.2031 15.8242 7.9517 15.8242C5.72427 15.8242 3.83215 15.0916 2.29929 13.602C0.766429 12.1123 0 10.232 0 7.96093C0 5.66545 0.766429 3.76068 2.29929 2.27106C3.80819 0.757021 5.70032 0 7.9517 0C10.2031 0 12.0952 0.732601 13.6281 2.22222C15.137 3.71184 15.9034 5.56777 15.9034 7.83883ZM14.3945 7.83883C14.3945 5.93407 13.7957 4.3956 12.5742 3.19902C11.3527 1.97802 9.81987 1.39194 7.97565 1.39194C6.13143 1.39194 4.59857 2.00244 3.35313 3.24786C2.13163 4.49328 1.50891 6.05617 1.50891 7.96093C1.50891 9.86569 2.13163 11.4042 3.35313 12.6252C4.57462 13.8462 6.13143 14.4567 7.97565 14.4567C9.81987 14.4567 11.3527 13.8217 12.5742 12.5763C13.7957 11.3309 14.3945 9.74359 14.3945 7.83883ZM29.3638 15.5556H27.4238L23.8312 11.0867L22.0588 13.4066V15.5556H20.5499V0.26862H22.0588V11.3065L27.304 4.24908H29.0764L24.7892 9.91453L29.3638 15.5556ZM35.5192 15.5556H34.0103V12.967H35.5192V15.5556ZM52.0453 15.5556H43.8062V0.26862H52.0453V1.66056H45.3151V7.17949H51.8298V8.54701H45.3151V14.188H52.0453V15.5556ZM66.8949 15.5556H65.386V9.62149C65.386 8.25397 65.0986 7.20391 64.4998 6.47131C63.901 5.73871 63.0388 5.37241 61.8652 5.37241C60.9311 5.37241 60.1886 5.64103 59.5899 6.15385C58.8474 6.83761 58.4642 7.91209 58.4642 9.35287V15.5556H56.9553V4.24908H58.3684V5.88523C58.8234 5.27472 59.3504 4.78632 59.9731 4.46886C60.6198 4.1514 61.3143 3.98046 62.0568 3.98046C63.446 3.98046 64.5717 4.42002 65.4099 5.27472C66.3919 6.25153 66.8949 7.71673 66.8949 9.62149V15.5556ZM82.8941 10.4518H72.9784C72.9784 11.5751 73.3856 12.5275 74.1999 13.2845C75.0382 14.0659 76.0202 14.4567 77.1938 14.4567C78.0321 14.4567 78.7985 14.2125 79.4931 13.7485C80.1877 13.2845 80.7146 12.674 81.0499 11.8926H82.6306C82.1756 13.1136 81.481 14.0659 80.523 14.7741C79.541 15.4823 78.4392 15.8242 77.1938 15.8242C75.5412 15.8242 74.152 15.2625 73.0503 14.1392C71.9485 13.0159 71.3977 11.6239 71.3977 9.91453C71.3977 8.40049 71.9006 7.05739 72.8587 5.90965C73.9604 4.61538 75.3975 3.98046 77.1938 3.98046C79.1099 3.98046 80.5948 4.68864 81.6008 6.10501C82.463 7.30159 82.8941 8.74237 82.8941 10.4518ZM81.2654 9.08425C81.0499 7.93651 80.5709 7.03297 79.8284 6.37363C79.062 5.71429 78.1758 5.37241 77.1938 5.37241C76.116 5.37241 75.2059 5.71429 74.4155 6.39805C73.649 7.08181 73.17 7.96093 72.9784 9.08425H81.2654ZM92.1631 5.54335C91.3488 5.54335 90.6302 5.78755 90.0554 6.32479C89.3608 6.93529 89.0255 7.78999 89.0255 8.86447V15.5556H87.5166V4.24908H88.9297V5.88523C89.265 5.27472 89.6962 4.81074 90.271 4.49328C90.8219 4.17582 91.4685 4.00488 92.1631 4.00488V5.54335ZM106.486 13.9438C106.486 15.9951 105.935 17.5336 104.809 18.6081C103.827 19.536 102.534 20 100.929 20C99.5639 20 98.3664 19.6093 97.3844 18.8523C96.3785 18.1197 95.6839 17.094 95.3246 15.8242H96.8096C97.1928 16.7277 97.7676 17.4359 98.534 17.9243C99.2526 18.3883 100.043 18.6081 100.905 18.6081C102.582 18.6081 103.755 17.9976 104.402 16.7521C104.785 16.0195 104.977 15.0916 104.977 13.9438V13.3333C104.594 14.1148 104.043 14.7253 103.324 15.1648C102.582 15.6044 101.743 15.8242 100.761 15.8242C99.1089 15.8242 97.7197 15.2625 96.618 14.1148C95.5162 12.967 94.9654 11.5751 94.9654 9.93895C94.9654 8.27839 95.5162 6.86203 96.594 5.71429C97.6958 4.56654 99.037 3.98046 100.666 3.98046C101.672 3.98046 102.558 4.20024 103.3 4.61538C104.043 5.03053 104.618 5.64103 105.025 6.44689L105.073 4.24908H106.486V13.9438ZM105.073 9.91453C105.073 8.62027 104.642 7.52137 103.803 6.66667C102.965 5.81197 101.911 5.37241 100.69 5.37241C99.4921 5.37241 98.4861 5.81197 97.6718 6.66667C96.8814 7.52137 96.4743 8.59585 96.4743 9.86569C96.4743 11.1355 96.8814 12.21 97.6958 13.1136C98.5101 13.9927 99.516 14.4567 100.761 14.4567C102.007 14.4567 103.013 14.0171 103.851 13.138C104.665 12.2589 105.073 11.1844 105.073 9.91453ZM121 4.24908L114.581 19.536H112.976L114.845 15.0427L110.462 4.24908H112.258L115.755 13.0647L119.395 4.24908H121Z" fill="#FEFEFE"/>
</svg>
