<svg width="182" height="51" viewBox="0 0 182 51" fill="none" xmlns="http://www.w3.org/2000/svg">
<path fill-rule="evenodd" clip-rule="evenodd" d="M22.1345 12.6665C22.7025 11.6808 22.1847 10.5114 21.3995 10.1439C19.8458 9.39215 16.488 11.4971 15.3019 12.5997C-0.351499 27.2006 16.0369 48.5172 33.1103 40.465C44.3533 35.1692 46.6587 17.2105 32.4253 10.3277C29.5352 8.92439 28.2823 11.6474 29.4684 12.9839C29.9863 13.5686 30.9886 13.8192 31.7738 14.2368C40.678 18.9145 40.6613 32.0285 32.1914 36.7062C30.5376 37.625 29.0842 38.1596 26.9124 38.4436C21.7002 39.1619 15.5859 35.4699 13.815 30.4582C12.9463 28.0024 12.7793 27.4511 12.8795 24.394C12.9296 22.4561 13.7816 20.6018 14.6002 19.0815C17.0393 14.5375 21.4496 13.8693 22.1345 12.6665Z" fill="#1EFF00"/>
<path d="M76.9034 25.8388C76.9034 28.1099 76.137 30.0147 74.6281 31.5531C73.0952 33.0672 71.2031 33.8242 68.9517 33.8242C66.7243 33.8242 64.8321 33.0916 63.2993 31.602C61.7664 30.1123 61 28.232 61 25.9609C61 23.6654 61.7664 21.7607 63.2993 20.2711C64.8082 18.757 66.7003 18 68.9517 18C71.2031 18 73.0952 18.7326 74.6281 20.2222C76.137 21.7118 76.9034 23.5678 76.9034 25.8388ZM75.3945 25.8388C75.3945 23.9341 74.7957 22.3956 73.5742 21.199C72.3527 19.978 70.8199 19.3919 68.9757 19.3919C67.1314 19.3919 65.5986 20.0024 64.3531 21.2479C63.1316 22.4933 62.5089 24.0562 62.5089 25.9609C62.5089 27.8657 63.1316 29.4042 64.3531 30.6252C65.5746 31.8462 67.1314 32.4567 68.9757 32.4567C70.8199 32.4567 72.3527 31.8217 73.5742 30.5763C74.7957 29.3309 75.3945 27.7436 75.3945 25.8388ZM90.3638 33.5556H88.4238L84.8312 29.0867L83.0588 31.4066V33.5556H81.5499V18.2686H83.0588V29.3065L88.304 22.2491H90.0764L85.7892 27.9145L90.3638 33.5556ZM96.5192 33.5556H95.0103V30.967H96.5192V33.5556ZM113.045 33.5556H104.806V18.2686H113.045V19.6606H106.315V25.1795H112.83V26.547H106.315V32.188H113.045V33.5556ZM127.895 33.5556H126.386V27.6215C126.386 26.254 126.099 25.2039 125.5 24.4713C124.901 23.7387 124.039 23.3724 122.865 23.3724C121.931 23.3724 121.189 23.641 120.59 24.1538C119.847 24.8376 119.464 25.9121 119.464 27.3529V33.5556H117.955V22.2491H119.368V23.8852C119.823 23.2747 120.35 22.7863 120.973 22.4689C121.62 22.1514 122.314 21.9805 123.057 21.9805C124.446 21.9805 125.572 22.42 126.41 23.2747C127.392 24.2515 127.895 25.7167 127.895 27.6215V33.5556ZM143.894 28.4518H133.978C133.978 29.5751 134.386 30.5275 135.2 31.2845C136.038 32.0659 137.02 32.4567 138.194 32.4567C139.032 32.4567 139.798 32.2125 140.493 31.7485C141.188 31.2845 141.715 30.674 142.05 29.8926H143.631C143.176 31.1136 142.481 32.0659 141.523 32.7741C140.541 33.4823 139.439 33.8242 138.194 33.8242C136.541 33.8242 135.152 33.2625 134.05 32.1392C132.949 31.0159 132.398 29.6239 132.398 27.9145C132.398 26.4005 132.901 25.0574 133.859 23.9096C134.96 22.6154 136.397 21.9805 138.194 21.9805C140.11 21.9805 141.595 22.6886 142.601 24.105C143.463 25.3016 143.894 26.7424 143.894 28.4518ZM142.265 27.0842C142.05 25.9365 141.571 25.033 140.828 24.3736C140.062 23.7143 139.176 23.3724 138.194 23.3724C137.116 23.3724 136.206 23.7143 135.415 24.398C134.649 25.0818 134.17 25.9609 133.978 27.0842H142.265ZM153.163 23.5433C152.349 23.5433 151.63 23.7875 151.055 24.3248C150.361 24.9353 150.026 25.79 150.026 26.8645V33.5556H148.517V22.2491H149.93V23.8852C150.265 23.2747 150.696 22.8107 151.271 22.4933C151.822 22.1758 152.469 22.0049 153.163 22.0049V23.5433ZM167.486 31.9438C167.486 33.9951 166.935 35.5336 165.809 36.6081C164.827 37.536 163.534 38 161.929 38C160.564 38 159.366 37.6093 158.384 36.8523C157.378 36.1197 156.684 35.094 156.325 33.8242H157.81C158.193 34.7277 158.768 35.4359 159.534 35.9243C160.253 36.3883 161.043 36.6081 161.905 36.6081C163.582 36.6081 164.755 35.9976 165.402 34.7521C165.785 34.0195 165.977 33.0916 165.977 31.9438V31.3333C165.594 32.1148 165.043 32.7253 164.324 33.1648C163.582 33.6044 162.743 33.8242 161.761 33.8242C160.109 33.8242 158.72 33.2625 157.618 32.1148C156.516 30.967 155.965 29.5751 155.965 27.9389C155.965 26.2784 156.516 24.862 157.594 23.7143C158.696 22.5665 160.037 21.9805 161.666 21.9805C162.672 21.9805 163.558 22.2002 164.3 22.6154C165.043 23.0305 165.618 23.641 166.025 24.4469L166.073 22.2491H167.486V31.9438ZM166.073 27.9145C166.073 26.6203 165.642 25.5214 164.803 24.6667C163.965 23.812 162.911 23.3724 161.69 23.3724C160.492 23.3724 159.486 23.812 158.672 24.6667C157.881 25.5214 157.474 26.5958 157.474 27.8657C157.474 29.1355 157.881 30.21 158.696 31.1136C159.51 31.9927 160.516 32.4567 161.761 32.4567C163.007 32.4567 164.013 32.0171 164.851 31.138C165.665 30.2589 166.073 29.1844 166.073 27.9145ZM182 22.2491L175.581 37.536H173.976L175.845 33.0427L171.462 22.2491H173.258L176.755 31.0647L180.395 22.2491H182Z" fill="#FEFEFE"/>
<path fill-rule="evenodd" clip-rule="evenodd" d="M24.536 9.39694C24.536 12.4579 24.4334 23.9147 24.5745 24.6435C24.8697 26.1594 26.6403 26.5238 27.2819 25.1245C27.6283 24.3812 27.4615 11.904 27.4487 9.14914C27.4487 7.9539 27.5128 5.95698 25.9475 6.00071C24.2666 6.04443 24.536 8.33288 24.536 9.39694Z" fill="#1EFF00"/>
<g filter="url(#filter0_i_10_26)">
<circle cx="26" cy="25.5" r="23.5" stroke="white" stroke-width="4"/>
</g>
<defs>
<filter id="filter0_i_10_26" x="0.5" y="0" width="51" height="52" filterUnits="userSpaceOnUse" color-interpolation-filters="sRGB">
<feFlood flood-opacity="0" result="BackgroundImageFix"/>
<feBlend mode="normal" in="SourceGraphic" in2="BackgroundImageFix" result="shape"/>
<feColorMatrix in="SourceAlpha" type="matrix" values="0 0 0 0 0 0 0 0 0 0 0 0 0 0 0 0 0 0 127 0" result="hardAlpha"/>
<feOffset dy="1"/>
<feGaussianBlur stdDeviation="2"/>
<feComposite in2="hardAlpha" operator="arithmetic" k2="-1" k3="1"/>
<feColorMatrix type="matrix" values="0 0 0 0 0.0470588 0 0 0 0 0.0470588 0 0 0 0 0.0509804 0 0 0 0.05 0"/>
<feBlend mode="normal" in2="shape" result="effect1_innerShadow_10_26"/>
</filter>
</defs>
</svg>
