<svg width="34" height="37" viewBox="0 0 34 37" fill="none" xmlns="http://www.w3.org/2000/svg">
<path fill-rule="evenodd" clip-rule="evenodd" d="M13.1345 6.66649C13.7025 5.68085 13.1847 4.51144 12.3995 4.14391C10.8458 3.39215 7.48797 5.49708 6.30185 6.59967C-9.3515 21.2006 7.03691 42.5172 24.1103 34.465C35.3533 29.1692 37.6587 11.2105 23.4253 4.32768C20.5352 2.92439 19.2823 5.64744 20.4684 6.9839C20.9863 7.56861 21.9886 7.81919 22.7738 8.23684C31.678 12.9145 31.6613 26.0285 23.1914 30.7062C21.5376 31.625 20.0842 32.1596 17.9124 32.4436C12.7002 33.1619 6.58585 29.4699 4.81504 24.4582C3.94633 22.0024 3.77928 21.4511 3.87951 18.394C3.92963 16.4561 4.78162 14.6018 5.60021 13.0815C8.03926 8.53754 12.4496 7.86931 13.1345 6.66649Z" fill="#1EFF00"/>
<path fill-rule="evenodd" clip-rule="evenodd" d="M15.536 3.39694C15.536 6.45792 15.4334 17.9147 15.5745 18.6435C15.8697 20.1594 17.6403 20.5238 18.2819 19.1245C18.6283 18.3812 18.4615 5.90402 18.4487 3.14914C18.4487 1.9539 18.5128 -0.043022 16.9475 0.000706312C15.2666 0.0444346 15.536 2.33288 15.536 3.39694Z" fill="#1EFF00"/>
</svg>
