<svg width="1421" height="280" viewBox="0 0 1421 280" fill="none" xmlns="http://www.w3.org/2000/svg">
<g clip-path="url(#clip0_59_1028)">
<path d="M880.421 107.333C866.376 112.068 857.696 118.064 852.015 127.06C843.178 140.947 841.758 155.939 848.07 169.195C854.856 183.556 865.114 191.446 888.312 199.81C917.822 210.541 927.133 221.588 918.453 235.791C910.405 249.047 887.365 250.625 856.276 240.052C850.279 238 845.072 236.264 844.756 236.264C844.44 236.264 844.283 243.05 844.283 251.414V266.406L850.122 268.773C868.428 276.506 900.305 277.452 919.716 270.824C932.183 266.564 944.965 255.359 950.962 243.208C954.276 236.422 955.065 232.477 955.065 223.955C954.75 199.81 945.754 190.815 905.197 173.771C880.737 163.514 875.845 159.568 875.845 149.469C875.845 129.269 907.407 124.219 940.231 139.211L948.437 142.998V127.375C948.437 117.591 947.806 111.436 946.701 110.647C945.754 110.174 939.915 108.28 933.603 106.702C917.191 102.441 893.993 102.757 880.421 107.333Z" fill="#686868"/>
<path d="M1120.45 189.71V275.717H1135.44H1150.43V189.71V103.704H1135.44H1120.45V189.71Z" fill="#686868"/>
<path d="M1219.55 149.784C1202.2 151.994 1186.89 162.409 1179.79 176.612C1173.16 190.026 1173.47 190.499 1189.57 190.499H1203.3L1206.46 184.502C1210.24 177.401 1220.82 171.562 1229.81 171.562C1242.75 171.562 1251.43 179.452 1251.43 191.13C1251.43 197.601 1252.22 197.285 1219.08 204.702C1196.99 209.752 1187.36 213.855 1180.89 220.799C1173 229.32 1170 245.101 1174.11 257.411C1175.05 260.567 1179 265.775 1182.79 269.089C1198.57 282.976 1226.5 283.765 1247.17 270.982C1251.43 268.299 1255.06 266.248 1255.38 266.248C1255.69 266.248 1256.32 268.457 1256.96 270.982L1258.06 275.717H1273.05C1287.89 275.717 1288.04 275.717 1286.94 272.087C1280.79 252.361 1279.84 244.47 1279.84 212.435C1279.84 180.873 1279.68 179.926 1275.74 171.878C1267.21 154.834 1245.44 146.312 1219.55 149.784ZM1251.12 229.005C1250.01 242.576 1245.59 249.678 1235.02 254.57C1229.5 257.095 1224.13 258.357 1217.82 258.357C1209.77 258.357 1208.03 257.726 1203.93 253.781C1197.15 246.837 1198.41 236.106 1206.77 230.741C1209.77 228.689 1244.17 219.536 1250.49 219.063C1251.27 218.905 1251.43 223.481 1251.12 229.005Z" fill="#686868"/>
<path d="M1309.82 211.804V275.717H1323.87H1338.07L1338.54 242.734L1339.02 209.91L1344.54 199.021C1353.69 181.031 1367.58 173.456 1382.1 178.348L1388.73 180.715V166.67C1388.73 152.94 1388.57 152.467 1384.62 151.047C1378.79 148.68 1363.16 149.153 1357.01 151.678C1351.01 154.203 1345.17 159.095 1341.07 165.25C1338.39 169.195 1338.39 169.037 1338.39 158.464L1338.23 147.89H1324.03H1309.82V211.804Z" fill="#686868"/>
<path d="M1018.35 152.309C994.202 160.989 979.526 181.346 977.474 209.279C974.634 245.733 995.78 273.823 1029.71 279.188C1071.69 285.659 1105.93 247.469 1098.51 202.651C1094.89 180.399 1083.68 164.461 1065.69 155.465C1056.7 151.047 1053.38 150.258 1040.91 149.942C1030.03 149.469 1024.66 150.1 1018.35 152.309ZM1052.43 180.242C1070.42 189.552 1076.42 211.804 1066.48 233.266C1063.17 240.367 1060.8 243.208 1054.96 246.522C1044.23 252.834 1035.71 253.465 1025.13 248.258C1003.51 237.684 998.779 207.385 1015.51 187.659C1024.66 177.085 1040.44 173.929 1052.43 180.242Z" fill="#686868"/>
<path d="M719.612 24.7987V50.0483H744.862H770.111V24.7987V-0.450851H744.862H719.612V24.7987Z" fill="#686868"/>
<path d="M222.512 99.9162C189.845 106.86 161.597 134.792 154.653 166.985C151.813 179.768 153.391 206.438 157.494 216.853L160.65 225.217H120.566H80.4826V164.461V103.704H54.7596H29.1943V186.87V270.193L85.3747 270.667L141.555 270.982L153.075 252.834C159.545 242.892 165.069 234.686 165.7 234.686C166.173 234.686 167.752 236.737 169.33 239.262C173.59 246.364 189.371 260.251 199.629 265.775C204.837 268.457 213.516 271.771 218.724 273.192C230.876 276.348 252.18 276.348 263.542 273.349C295.262 264.985 321.458 237.684 328.244 206.122C331.243 192.709 329.665 169.984 324.772 156.254C310.096 114.75 266.067 90.4476 222.512 99.9162ZM258.808 148.048C268.908 152.625 277.272 161.304 280.901 171.089C289.107 192.866 280.586 214.802 260.386 225.06C246.656 231.845 236.241 231.845 222.669 225.06C196.157 211.804 190.634 176.454 211.78 156.254C223.616 144.892 243.816 141.262 258.808 148.048Z" fill="#686868"/>
<path d="M591.313 99.6006C575.847 103.23 559.277 112.383 547.757 124.061C529.767 142.051 521.718 161.936 521.876 187.343C522.034 213.224 531.187 234.055 550.44 252.361C566.694 267.984 586.894 275.717 610.723 275.717C635.657 275.717 655.226 267.51 673.216 249.678C691.206 231.845 699.097 212.435 699.097 186.08V171.562H654.91H610.723V185.765V199.968H632.028C645.757 199.968 653.332 200.599 653.332 201.546C653.332 204.86 647.177 215.118 642.759 219.063C632.185 228.847 626.82 230.741 610.723 230.741C596.52 230.741 595.258 230.425 587.683 225.691C578.372 219.694 574.269 215.275 569.377 205.965C564.485 196.496 564.485 178.506 569.219 168.09C576.163 152.783 593.68 141.578 610.723 141.578C619.718 141.578 634.237 146.628 638.34 151.047C641.023 153.887 643.232 154.203 667.061 154.203C681.107 154.203 692.785 153.729 692.785 153.256C692.785 152.783 690.417 147.89 687.735 142.683C677.793 124.061 657.277 107.649 635.973 101.494C623.979 97.8647 602.517 97.0757 591.313 99.6006Z" fill="#686868"/>
<path d="M345.604 187.343V270.982H368.486H391.368L391.684 219.378L392.157 167.932L423.246 219.063L454.177 270.193L480.373 270.667L506.57 270.982V187.343V103.704H484.476H462.383V154.992C462.383 183.24 461.752 206.28 461.12 206.28C460.489 206.28 445.813 183.24 428.612 154.992L397.365 103.704H371.484H345.604V187.343Z" fill="#686868"/>
<path d="M719.612 189.71V275.717H744.862H770.111V189.71V103.704H744.862H719.612V189.71Z" fill="#686868"/>
<path d="M718.668 24.7986C718.668 39.1594 718.984 44.9983 719.141 37.7391C719.457 30.6376 719.457 18.9597 719.141 11.7004C718.984 4.59897 718.668 10.4379 718.668 24.7986Z" fill="#686868"/>
<path d="M718.352 189.237L718.825 276.506L719.141 190.184L719.614 103.704L745.337 103.23L770.902 102.757L744.548 102.441L718.036 102.126L718.352 189.237Z" fill="#686868"/>
<path d="M461.437 154.992C461.437 183.556 461.752 195.549 461.91 181.504C462.226 167.459 462.226 144.103 461.91 129.427C461.752 114.908 461.437 126.271 461.437 154.992Z" fill="#686868"/>
<path d="M151.971 185.765C151.971 191.446 152.286 193.655 152.602 190.815C152.918 188.132 152.918 183.398 152.602 180.557C152.286 177.874 151.971 180.084 151.971 185.765Z" fill="#686868"/>
<path d="M699.572 185.765C699.572 189.71 699.888 191.288 700.204 189.237C700.519 187.343 700.519 184.187 700.204 182.135C699.888 180.242 699.572 181.82 699.572 185.765Z" fill="#686868"/>
<path d="M330.297 187.343C330.297 191.288 330.612 192.866 330.928 190.815C331.244 188.921 331.244 185.765 330.928 183.713C330.612 181.82 330.297 183.398 330.297 187.343Z" fill="#686868"/>
<path d="M620.509 201.072C626.348 201.388 636.29 201.388 642.602 201.072C648.915 200.915 644.18 200.599 632.029 200.599C619.878 200.599 614.67 200.757 620.509 201.072Z" fill="#686868"/>
<path d="M542.866 246.206C542.866 246.522 545.233 248.731 548.074 251.414L553.124 255.99L548.547 250.783C544.129 246.048 542.866 244.944 542.866 246.206Z" fill="#686868"/>
<path d="M28.4062 271.298C28.4062 272.087 54.1293 272.403 85.6913 272.245C117.095 272.087 133.981 271.613 123.092 271.456C73.3821 270.351 28.4062 270.351 28.4062 271.298Z" fill="#686868"/>
<path d="M454.336 271.456C454.967 272.087 467.118 272.403 481.479 272.245L507.36 271.771L480.216 270.982C465.224 270.509 453.547 270.667 454.336 271.456Z" fill="#686868"/>
<path d="M357.124 272.087C363.91 272.403 374.483 272.403 380.795 272.087C387.108 271.929 381.584 271.613 368.486 271.613C355.546 271.613 350.338 271.929 357.124 272.087Z" fill="#686868"/>
<path d="M1148.86 103.23C1149.96 103.704 1150.43 132.741 1150.43 189.71V275.559L1135.44 276.19L1120.45 276.664H1135.76L1151.22 276.506V189.868C1151.22 120.905 1150.75 103.073 1149.17 102.757C1148.07 102.599 1147.91 102.757 1148.86 103.23Z" fill="#686868"/>
<path d="M948.754 116.329C948.754 119.327 949.07 120.59 949.543 119.011C949.859 117.591 949.859 115.066 949.543 113.488C949.07 112.068 948.754 113.33 948.754 116.329Z" fill="#686868"/>
<path d="M1280.47 212.593C1280.47 229.478 1280.79 236.422 1280.94 227.9C1281.26 219.536 1281.26 205.649 1280.94 197.127C1280.79 188.763 1280.47 195.707 1280.47 212.593Z" fill="#686868"/>
<path d="M1250.33 226.007C1250.33 229.478 1250.64 230.741 1250.96 228.689C1251.28 226.796 1251.28 223.955 1250.96 222.377C1250.49 220.957 1250.17 222.535 1250.33 226.007Z" fill="#686868"/>
<path d="M843.337 250.467C843.337 259.62 843.495 263.25 843.81 258.673C844.126 254.255 844.126 246.68 843.81 242.103C843.495 237.685 843.337 241.314 843.337 250.467Z" fill="#686868"/>
<path d="M889.733 246.838C891.627 247.153 894.468 247.153 896.046 246.838C897.466 246.364 895.888 246.048 892.416 246.206C888.944 246.206 887.682 246.522 889.733 246.838Z" fill="#686868"/>
<path d="M239.556 96.9179C241.45 97.2336 244.291 97.2336 245.869 96.9179C247.289 96.4445 245.711 96.1289 242.239 96.2867C238.767 96.2867 237.505 96.6023 239.556 96.9179Z" fill="#686868"/>
<path d="M608.043 96.9179C609.463 97.2336 611.988 97.2336 613.566 96.9179C614.986 96.4445 613.724 96.1289 610.726 96.1289C607.727 96.1289 606.465 96.4445 608.043 96.9179Z" fill="#686868"/>
<path d="M54.4449 103.23L80.4835 103.704L80.7992 164.145L81.2726 224.428L120.409 224.902C141.872 225.06 159.389 224.744 159.389 224.113C159.389 223.324 142.029 223.008 120.725 223.324L82.0616 223.797L81.746 163.356L81.2726 102.915H54.7605L28.4062 102.757L54.4449 103.23Z" fill="#686868"/>
<path d="M358.702 103.23C366.277 103.546 378.429 103.546 385.53 103.23C392.631 103.073 386.477 102.757 371.643 102.757C356.966 102.757 351.127 103.073 358.702 103.23Z" fill="#686868"/>
<path d="M483.214 103.23L506.57 103.862L507.043 187.816L507.359 271.771V187.343V102.915H483.687L460.016 102.757L483.214 103.23Z" fill="#686868"/>
<path d="M176.59 123.746L171.225 129.742L177.221 124.377C180.378 121.379 183.06 118.696 183.06 118.38C183.06 117.118 181.798 118.38 176.59 123.746Z" fill="#686868"/>
<path d="M948.912 132.11C948.912 138.58 949.228 141.263 949.543 137.949C949.859 134.792 949.859 129.427 949.543 126.113C949.228 122.957 948.912 125.639 948.912 132.11Z" fill="#686868"/>
<path d="M899.991 131.636C901.411 131.952 903.936 131.952 905.514 131.636C906.935 131.163 905.672 130.847 902.674 130.847C899.675 130.847 898.413 131.163 899.991 131.636Z" fill="#686868"/>
<path d="M1389.36 166.828C1389.36 175.034 1389.52 178.506 1389.83 174.245C1390.15 170.142 1390.15 163.514 1389.83 159.253C1389.52 155.15 1389.36 158.622 1389.36 166.828Z" fill="#686868"/>
<path d="M391.369 221.272C391.369 249.836 391.685 272.718 392.158 272.403C393.105 271.298 393.263 171.404 392.316 170.299C391.685 169.826 391.369 192.708 391.369 221.272Z" fill="#686868"/>
<path d="M632.502 171.089C644.812 171.404 665.011 171.404 677.478 171.089C689.787 170.931 679.688 170.615 654.911 170.615C630.135 170.615 620.035 170.931 632.502 171.089Z" fill="#686868"/>
<path d="M199.156 185.765C199.156 188.763 199.472 190.026 199.945 188.448C200.261 187.027 200.261 184.502 199.945 182.924C199.472 181.504 199.156 182.767 199.156 185.765Z" fill="#686868"/>
<path d="M1182.47 191.604C1186.57 191.919 1193.2 191.919 1197.46 191.604C1201.57 191.288 1198.09 191.13 1189.89 191.13C1181.68 191.13 1178.21 191.288 1182.47 191.604Z" fill="#686868"/>
<path d="M975.739 214.96C975.739 219.221 976.055 220.957 976.37 218.432C976.686 216.064 976.686 212.593 976.37 210.541C976.055 208.647 975.739 210.541 975.739 214.96Z" fill="#686868"/>
<path d="M881.053 276.821C882.474 277.137 884.999 277.137 886.577 276.821C887.997 276.348 886.735 276.032 883.736 276.032C880.738 276.032 879.475 276.348 881.053 276.821Z" fill="#686868"/>
<path d="M1315.82 276.821C1320.24 277.137 1327.81 277.137 1332.39 276.821C1336.81 276.506 1333.18 276.348 1324.03 276.348C1314.87 276.348 1311.24 276.506 1315.82 276.821Z" fill="#686868"/>
</g>
<defs>
<clipPath id="clip0_59_1028">
<rect width="1420.74" height="280" fill="white"/>
</clipPath>
</defs>
</svg>
