<svg width="800" height="800" viewBox="0 0 800 800" fill="none" xmlns="http://www.w3.org/2000/svg">
<path d="M558.053 513.234L537.808 534.543C537.808 534.543 489.693 585.201 358.36 446.928C227.027 308.66 275.142 258.004 275.142 258.004L287.889 244.583C319.293 211.522 322.253 158.443 294.853 119.693L238.811 40.4272C204.901 -7.53336 139.376 -13.8689 100.509 27.0507L30.7488 100.495C11.4768 120.785 -1.43786 147.087 0.128364 176.264C4.13503 250.91 36.0314 411.516 214.016 598.9C402.76 797.611 579.857 805.508 652.279 798.36C675.186 796.101 695.106 783.748 711.159 766.844L774.297 700.378C816.915 655.508 804.897 578.585 750.368 547.201L665.457 498.326C629.653 477.719 586.035 483.771 558.053 513.234Z" fill="#1EFF00"/>
</svg>
