<svg width="1366" height="245" viewBox="0 0 1366 245" fill="none" xmlns="http://www.w3.org/2000/svg">
<path d="M1035.65 37.2525C1015.98 39.2461 1002.87 43.0234 997.69 48.1648C995.575 50.2633 995.47 51.4175 995.47 88.6664C995.47 114.583 995.787 126.965 996.527 126.965C999.065 126.965 1013.13 119.62 1015.56 116.997L1017.94 114.447C1018.11 114.264 1018.21 114.026 1018.21 113.777L1018.52 88.0369C1018.84 62.4348 1018.94 61.8053 1021.16 60.4412C1026.24 57.2934 1040.83 56.1392 1075.3 56.1392C1110.83 56.1392 1128.59 57.5033 1132.19 60.6511C1133.67 62.0151 1133.99 64.1136 1133.99 75.2358C1133.99 84.8891 1134.3 88.1418 1135.36 88.1418C1136.1 88.1418 1140.33 86.3581 1144.98 84.0497C1156.4 78.4886 1157.25 77.0196 1157.25 62.225C1157.25 51.4175 1157.04 50.2633 1154.92 48.1648C1149.21 42.8136 1136.53 39.2461 1116.01 37.2525C1097.19 35.3638 1053.84 35.4687 1035.65 37.2525Z" fill="#686868"/>
<path d="M18.2738 40.811C11.9361 42.8243 5.38707 48.5462 2.21821 54.692C0.316887 58.6126 0.105629 60.9437 0.105629 80.6526C0.105629 101.527 0.211258 102.481 2.64072 107.461C5.91522 113.819 8.66157 116.574 15.4218 119.646C20.7033 122.084 20.9145 122.084 80.7005 122.613L140.348 123.139C140.637 123.142 140.911 123.27 141.099 123.49L143.338 126.11C145.768 128.971 145.873 129.819 145.873 143.17C145.873 157.051 145.768 157.369 143.127 160.124L140.566 162.598C140.379 162.778 140.13 162.879 139.871 162.879H79.116C6.02084 162.879 12.4642 161.713 4.85893 176.866L0.707707 185.285C0.380865 185.948 0.86122 186.724 1.60028 186.727L73.5177 187.038L146.888 187.249C147.054 187.25 147.218 187.209 147.364 187.131L153.268 183.965C159.288 180.786 162.668 176.972 165.732 169.978C166.577 167.965 166.999 159.7 166.999 143.912V121.063C166.999 120.898 166.959 120.736 166.881 120.591L163.936 115.09C160.767 109.05 155.486 104.494 149.042 102.269C146.402 101.421 128.022 100.891 85.4538 100.467C52.6032 100.15 25.4566 99.6197 25.2453 99.3018C21.7595 95.0634 21.2314 93.0501 21.2314 82.6659C21.2314 76.5201 21.7595 70.6922 22.499 69.1028C25.1397 63.1689 24.5059 63.2749 89.7845 63.2749H149.524C149.759 63.2749 149.986 63.1925 150.166 63.0421L153.056 60.6258C156.225 57.9768 162.352 47.3806 163.936 41.8706L164.418 40.1796C164.6 39.5404 164.119 38.9047 163.454 38.9057L94.3266 39.0096C31.2661 39.0096 23.344 39.2216 18.2738 40.811Z" fill="#686868"/>
<path d="M206.14 105.442V173.199C206.14 173.519 206.293 173.82 206.552 174.008L209.647 176.253C220.806 184.627 244.186 188.125 287.44 188.125C329.419 188.019 354.394 183.991 363.215 175.723L366.31 172.731C366.505 172.543 366.615 172.283 366.615 172.012V104.806V38.1762C366.615 37.6239 366.168 37.1762 365.615 37.1762H354.925H344.235C343.683 37.1762 343.235 37.6239 343.235 38.1762V99.2942C343.235 147.526 342.916 161.624 341.96 162.578C341.216 163.32 337.283 164.592 333.139 165.334C322.936 167.348 260.553 168.196 248.437 166.5C233.665 164.486 232.177 164.168 230.902 163.108C229.839 162.26 229.52 148.268 229.52 99.6122V38.1762C229.52 37.6239 229.073 37.1762 228.52 37.1762H217.83H207.14C206.587 37.1762 206.14 37.6239 206.14 38.1762V105.442Z" fill="#686868"/>
<path d="M405.755 112.385V186.168C405.755 186.72 406.203 187.168 406.755 187.168H417.386H428.017C428.57 187.168 429.017 186.72 429.017 186.168V129.357C429.017 88.8366 429.335 71.5464 430.181 71.5464C430.815 71.5464 456.932 97.2165 488.231 128.721C551.357 191.941 545.436 187.168 560.451 187.168H566.535C567.087 187.168 567.535 186.72 567.535 186.168V112.385V38.6025C567.535 38.0502 567.087 37.6025 566.535 37.6025H555.904H545.273C544.72 37.6025 544.273 38.0502 544.273 38.6025V94.7768C544.273 135.616 543.955 152.269 543.109 152.8C542.369 153.224 518.578 130.1 485.165 96.6861C453.972 65.3941 427.114 39.2997 425.528 38.7693C423.836 38.1329 418.761 37.6025 414.108 37.6025H406.755C406.203 37.6025 405.755 38.0502 405.755 38.6025V112.385Z" fill="#686868"/>
<path d="M615.494 40.1752C610.831 44.0958 607.863 52.2549 604.896 69.1028C602.034 86.2686 602.034 139.779 605.002 157.793C607.651 174.111 609.029 178.455 612.738 183.223L615.512 186.857C615.701 187.105 615.995 187.25 616.306 187.25H688.197H760.019C760.368 187.25 760.692 187.068 760.874 186.77L762.065 184.813C765.774 178.985 767.152 168.283 767.152 144.336C767.152 124.945 766.834 119.646 765.033 112.653C761.853 99.4078 764.927 100.361 725.29 100.361C690.846 100.361 686.289 100.785 682.05 104.388C680.036 106.189 677.916 110.11 674.843 117.527L673.371 121.245C673.111 121.902 673.595 122.613 674.301 122.613H707.803H742.1C742.454 122.613 742.781 122.8 742.961 123.105L744.048 124.945C745.956 128.441 745.85 154.826 743.942 159.382L742.814 162.245C742.664 162.628 742.295 162.879 741.884 162.879H686.077C642.201 162.879 629.377 162.561 628.635 161.501C626.304 158.64 624.714 138.508 624.608 112.017C624.608 85.5268 625.88 71.0101 628.529 65.606L629.419 63.8276C629.588 63.4889 629.934 63.2749 630.313 63.2749H690.21H750.186C750.462 63.2749 750.726 63.1605 750.915 62.9589L755.388 58.1887C758.356 55.0099 761.111 50.7714 762.277 47.2747C763.443 44.0958 764.503 40.917 764.821 40.1752C765.138 39.2216 749.983 38.9037 691.164 38.9037C633.405 38.9037 616.66 39.2216 615.494 40.1752Z" fill="#686868"/>
<path d="M806.291 49.8349V61.0378C806.291 61.59 806.739 62.0378 807.291 62.0378H868.263H929.686C930.083 62.0378 930.443 62.2731 930.602 62.6373L931.499 64.6906C932.237 66.3884 932.764 73.1795 932.764 81.6685C932.764 94.6142 932.553 96.2058 930.656 98.1159C928.548 100.238 927.178 100.238 867.42 100.238H807.291C806.739 100.238 806.291 100.686 806.291 101.238V143.744V186.25C806.291 186.802 806.739 187.25 807.291 187.25H816.83H826.37C826.922 187.25 827.37 186.802 827.37 186.25V155.629C827.37 132.496 827.686 123.689 828.635 122.734C829.478 121.885 835.801 121.461 849.924 121.461H869.529C869.798 121.461 870.055 121.569 870.243 121.761L901.673 153.825L933.102 185.889C933.291 186.081 933.548 186.189 933.817 186.189H950.681H965.669C966.558 186.189 967.005 185.115 966.378 184.484L937.191 155.098C920.328 138.12 906.416 123.477 906.416 122.734C906.416 121.779 911.264 121.461 926.757 121.461C950.365 121.461 949.1 121.991 952.367 110.849C954.054 104.907 954.265 100.238 954.37 78.4851C954.37 56.0955 954.054 52.2755 952.262 47.1821C948.573 36.5709 956.689 37.632 876.694 37.632H807.291C806.739 37.632 806.291 38.0797 806.291 38.632V49.8349Z" fill="#686868"/>
<path d="M1197.7 113.077V186.25C1197.7 186.802 1198.15 187.25 1198.7 187.25H1209.13H1220.04C1220.31 187.25 1220.56 187.145 1220.75 186.957L1250.62 157.051C1267.24 140.415 1281.22 126.852 1281.85 126.852C1282.38 126.852 1296.46 140.415 1313.08 157.051L1343.06 186.958C1343.24 187.145 1343.5 187.25 1343.76 187.25H1354.68H1365C1365.55 187.25 1366 186.802 1366 186.25V113.077V39.9037C1366 39.3514 1365.55 38.9037 1365 38.9037H1354.89H1344.77C1344.22 38.9037 1343.77 39.3514 1343.77 39.9037V97.7124C1343.77 139.355 1343.46 156.521 1342.61 156.521C1341.97 156.521 1328.11 143.17 1311.81 126.852C1295.61 110.534 1282.06 97.1826 1281.85 97.1826C1281.64 97.1826 1268.09 110.534 1251.89 126.852C1235.59 143.17 1221.73 156.521 1221.09 156.521C1220.24 156.521 1219.93 139.355 1219.93 97.7124V39.9037C1219.93 39.3514 1219.48 38.9037 1218.93 38.9037H1208.81H1198.7C1198.15 38.9037 1197.7 39.3514 1197.7 39.9037V113.077Z" fill="#686868"/>
<path d="M1153.72 96.7962C1151.92 97.3271 1148.65 99.0263 1146.32 100.513C1143.99 102 1141.14 103.699 1139.98 104.23C1138.81 104.867 1137.02 106.991 1136.07 109.009C1134.48 112.195 1134.27 116.336 1134.16 137.257C1134.16 155.629 1133.85 162.107 1132.89 162.85C1132.15 163.487 1126.02 164.762 1119.36 165.718C1109 167.311 1101.82 167.523 1071.26 167.204C1034.69 166.673 1024.75 165.718 1020.84 162.319C1019.25 160.939 1018.94 158.815 1018.94 147.664V135.991C1018.94 135.308 1018.27 134.826 1017.62 135.043L1016.08 135.558C1011.54 136.938 1001.5 142.354 998.747 145.009C996.421 147.133 996.21 148.301 995.787 159.877L995.48 172.001C995.473 172.262 995.569 172.515 995.747 172.706L998.43 175.594C1001.92 179.205 1006.68 181.222 1017.35 183.665C1032.57 187.063 1046.74 188.125 1077.08 188.125C1107.31 188.125 1121.48 187.063 1136.81 183.665C1144.21 181.966 1156.26 176.55 1157 174.319C1157.21 173.788 1157.31 155.841 1157.21 134.496L1156.9 97.1117C1156.9 96.432 1156.23 95.9558 1155.59 96.1716L1153.72 96.7962Z" fill="#686868"/>
</svg>
