<svg width="121" height="20" viewBox="0 0 121 20" fill="none" xmlns="http://www.w3.org/2000/svg">
<path d="M10.5 16.0308L4.01064 20L5.775 12.5931L0 7.63931L7.57978 7.03079L10.5 0L13.4202 7.03079L21 7.63931L15.225 12.5931L16.9894 20L10.5 16.0308Z" fill="#FFD200"/>
<path d="M35.5 16.0308L29.0106 20L30.775 12.5931L25 7.63931L32.5798 7.03079L35.5 0L38.4202 7.03079L46 7.63931L40.225 12.5931L41.9894 20L35.5 16.0308Z" fill="#FFD200"/>
<path d="M60.5 16.0308L54.0106 20L55.775 12.5931L50 7.63931L57.5798 7.03079L60.5 0L63.4202 7.03079L71 7.63931L65.225 12.5931L66.9894 20L60.5 16.0308Z" fill="#FFD200"/>
<path d="M85.5 16.0308L79.0106 20L80.775 12.5931L75 7.63931L82.5798 7.03079L85.5 0L88.4202 7.03079L96 7.63931L90.225 12.5931L91.9894 20L85.5 16.0308Z" fill="#FFD200"/>
<path d="M110.5 16.0308L104.011 20L105.775 12.5931L100 7.63931L107.58 7.03079L110.5 0L113.42 7.03079L121 7.63931L115.225 12.5931L116.989 20L110.5 16.0308Z" fill="#FFD200"/>
</svg>
