<svg width="1182" height="280" viewBox="0 0 1182 280" fill="none" xmlns="http://www.w3.org/2000/svg">
<g clip-path="url(#clip0_59_918)">
<path d="M298.354 56.3508C298.354 57.5758 300.422 66.8508 302.785 77.0008C310.761 110.776 330.848 198.451 334.689 216.125L338.233 233.625H363.342H388.156L394.655 207.376C398.2 192.851 404.108 167.651 407.948 151.376L414.742 121.626L419.764 141.751C422.422 152.776 428.33 178.151 433.057 198.101L441.328 234.5H465.551C493.023 234.5 491.546 235.375 494.795 217.875C496.568 208.601 504.544 173.776 525.812 82.2507C529.062 68.2508 531.72 56.3508 531.72 55.4758C531.72 54.7758 521.381 54.2508 508.679 54.2508H485.638L479.139 86.9757C475.594 105.176 471.163 128.976 469.391 140.001C467.323 151.026 464.96 160.651 464.074 161.351C462.892 162.051 459.938 153.126 456.984 141.226C443.691 85.4007 437.192 56.7008 437.192 55.6508C437.192 54.7758 427.149 54.2508 415.037 54.2508C402.926 54.2508 392.882 54.7758 392.882 55.4758C392.882 56.1758 389.633 70.1758 385.793 86.6257C381.657 102.901 376.34 126.176 373.386 138.251C370.727 150.326 367.773 160.651 366.592 161.351C365.41 162.051 362.161 150.326 359.502 135.101C356.844 120.051 352.117 95.5507 349.459 80.8508L344.437 54.2508H321.396C304.853 54.2508 298.354 54.9508 298.354 56.3508Z" fill="#686868"/>
<path d="M549.442 72.6248V90.9998H573.074H596.706V72.6248V54.2497H573.074H549.442V72.6248Z" fill="#686868"/>
<path d="M646.925 72.6246V90.9996H670.557H694.189V72.6246V54.2496H670.557H646.925V72.6246Z" fill="#686868"/>
<path d="M726.682 144.374V234.5H748.837H770.992V203.875V173.25H781.035C792.556 173.25 791.669 172.375 812.643 214.725L822.391 234.5H848.386C862.565 234.5 874.381 233.975 874.381 233.45C874.381 232.4 862.861 210.35 844.546 176.05C839.229 165.899 839.229 165.549 844.251 162.049C862.565 149.974 869.064 136.674 869.064 112.874C868.769 84.1743 855.476 65.4493 830.071 57.7493C820.028 54.7743 812.643 54.2493 772.469 54.2493H726.682V144.374ZM813.824 96.9494C827.413 104.999 827.413 123.724 813.824 130.724C807.621 133.874 802.599 134.749 788.42 134.749H770.992V113.749V92.7493H788.715C803.781 92.7493 807.916 93.4493 813.824 96.9494Z" fill="#686868"/>
<path d="M883.242 75.2493V96.2494H903.92H924.598V165.374V234.5H948.23H971.862V165.374V96.2494H992.54H1013.22V75.2493V54.2493H948.23H883.242V75.2493Z" fill="#686868"/>
<path d="M1036.85 144.374V234.499H1060.48H1084.11V197.749V160.999H1109.22H1134.33V197.749V234.499H1157.96H1181.6V144.374V54.2489H1157.96H1134.33V86.624V118.999H1109.22H1084.11V86.624V54.2489H1060.48H1036.85V144.374Z" fill="#686868"/>
<path d="M549.442 142.975C549.442 184.45 552.101 198.625 562.145 212.45C576.028 231.875 593.752 238.875 625.951 237.65C648.992 236.95 662.58 232.225 674.987 220.325C688.576 207.725 691.825 195.125 693.302 148.225L694.779 105H670.852H646.924V139.65C646.924 178.85 643.379 191.1 630.677 194.6C620.338 197.4 609.409 194.95 603.501 188.475C599.07 183.75 598.183 177.1 597.297 143.85L596.411 105H572.779H549.442V142.975Z" fill="#686868"/>
<path d="M0 55.1252V110.25H116.683H233.366V55.1252V0.0001297H184.625H135.884V21.0002V42.0002H116.683H97.482V21.0002V0.0001297H48.741H0V55.1252Z" fill="#686868"/>
<path d="M0 163.975C0 201.6 26.2906 246.05 60.5569 266.875C69.4189 272.3 89.506 280 94.8232 280C96.3002 280 97.4818 270.9 97.4818 259V238H116.683H135.884V259C135.884 270.55 136.475 280 137.361 280C143.269 280 160.107 273 171.923 265.65C205.598 244.825 228.935 205.8 231.002 167.125L231.889 153.125L116.092 152.6L0 152.25V163.975Z" fill="#686868"/>
</g>
<defs>
<clipPath id="clip0_59_918">
<rect width="1181.6" height="280" fill="white"/>
</clipPath>
</defs>
</svg>
