<?xml version="1.0" encoding="UTF-8"?>
<svg width="193px" height="40px" viewBox="0 0 193 40" version="1.1" xmlns="http://www.w3.org/2000/svg" xmlns:xlink="http://www.w3.org/1999/xlink">
    <title>Würth_Logo_2010</title>
    <g id="Page-1" stroke="none" stroke-width="1" fill="none" fill-rule="evenodd" opacity="0.3">
        <g id="Extra-Large" transform="translate(-680, -4083)" fill="#FFFFFF" fill-rule="nonzero">
            <g id="Group-38" transform="translate(369, 4083)">
                <g id="Würth_Logo_2010" transform="translate(311, 0)">
                    <path d="M191.496179,7.97184098 L191.496179,33.2016462 L185.933893,33.2016462 L185.933893,22.1709374 L174.590266,22.1709374 L174.590266,33.2016462 L169.012324,33.2016462 L169.012324,7.97184098 L174.590266,7.97184098 L174.590266,17.5396143 L185.933893,17.5396143 L185.933893,7.97184098 L191.496179,7.97184098 L191.496179,7.97184098 Z M144.823009,12.5405835 L152.028159,12.5405835 L152.028159,33.2016462 L157.590468,33.2016462 L157.590468,12.5405835 L164.811252,12.5405835 L164.811252,7.97184098 L144.823009,7.97184098 L144.823009,12.5405835 Z M107.983553,23.1410114 C107.983553,27.5298328 105.761785,29.2039946 102.515168,29.2039946 C99.268521,29.2039946 97.0623868,27.5298328 97.0623868,23.1723017 L97.0623868,15.1561441 L91.4140355,15.1561441 L91.4140355,23.2114277 C91.4140355,29.1335933 94.7701948,33.7805653 102.515168,33.7805653 C110.299222,33.7805653 113.616263,29.1335933 113.616263,23.2505387 L113.616263,15.1561441 L107.983553,15.1561441 L107.983553,23.1410114 L107.983553,23.1410114 Z M91.4140355,12.029473 L97.0623868,12.029473 L97.0623868,7.97184098 L91.4140355,7.97184098 L91.4140355,12.029473 Z M107.983553,12.029473 L113.616263,12.029473 L113.616263,7.97184098 L107.983553,7.97184098 L107.983553,12.029473 Z M67.0056736,7.97184098 L61.7954164,26.1294854 L57.2266589,7.97184098 L51.7739076,7.97184098 L58.6896019,33.2016462 L64.3692584,33.2016462 L69.8220247,14.3633985 L75.2826118,33.2016462 L81.0326471,33.2016462 L87.9561771,7.97184098 L82.5660064,7.97184098 L78.0050696,26.1294854 L72.7870217,7.97184098 L67.0056736,7.97184098 L67.0056736,7.97184098 Z M119.68706,7.97184098 L132.000775,7.97184098 C139.025997,7.97184098 141.889287,11.9695 141.889287,16.2566074 C141.889287,19.1433598 140.168201,21.9284282 136.96068,23.3835355 L142.632516,33.2016462 L136.311375,33.2016462 L131.460982,24.5335456 L125.108551,24.5335456 L125.108551,33.2016462 L119.68706,33.2016462 L119.68706,7.97184098 L119.68706,7.97184098 Z M125.108551,12.3293721 L125.108551,20.136911 L131.421856,20.136911 C134.957937,20.136911 136.459991,18.5722689 136.459991,16.2566074 C136.459991,13.9409309 134.957937,12.3293721 131.421856,12.3293721 L125.108551,12.3293721 L125.108551,12.3293721 Z" id="path6290" stroke="#FFFFFF" stroke-width="2"></path>
                    <path d="M36.1509942,15.5525121 L0,15.5525121 L0,0 L15.0440092,0 L15.0440092,6.09426604 L21.0991718,6.09426604 L21.0991718,0 L36.1509942,0 L36.1509942,15.5525121 Z M21.0991718,33.9370243 L21.0991718,40 C29.7437878,38.3806056 36.1509942,30.8390454 36.1509942,22.3743505 L36.1509942,22.3583196 L36.1509942,21.6072926 L0,21.6072926 L0,22.3583196 L0,22.3743505 C0,30.8390454 6.36808795,38.3806056 15.0283753,40 L15.0283753,33.9370243 L21.0991718,33.9370243 L21.0991718,33.9370243 Z" id="path6294"></path>
                </g>
            </g>
        </g>
    </g>
</svg>